<mxfile host="65bd71144e">
    <diagram id="G4SkGWUTr0Blr15YmPUN" name="Page-1">
        <mxGraphModel dx="567" dy="190" grid="0" gridSize="10" guides="1" tooltips="1" connect="1" arrows="1" fold="1" page="1" pageScale="0.9" pageWidth="1100" pageHeight="1700" background="none" math="0" shadow="0">
            <root>
                <mxCell id="0"/>
                <mxCell id="1" parent="0"/>
                <mxCell id="216" value="" style="group;" parent="1" vertex="1" connectable="0">
                    <mxGeometry x="61" y="223" width="361" height="425.00000000000006" as="geometry"/>
                </mxCell>
                <mxCell id="38" value="players" style="swimlane;fontStyle=0;childLayout=stackLayout;horizontal=1;startSize=26;fillColor=none;horizontalStack=0;resizeParent=1;resizeParentMax=0;resizeLast=0;collapsible=1;marginBottom=0;html=1;rounded=0;container=0;" parent="216" vertex="1">
                    <mxGeometry width="157.93750000000006" height="209.39162234042553" as="geometry"/>
                </mxCell>
                <mxCell id="46" value="games" style="swimlane;fontStyle=0;childLayout=stackLayout;horizontal=1;startSize=26;fillColor=none;horizontalStack=0;resizeParent=1;resizeParentMax=0;resizeLast=0;collapsible=1;marginBottom=0;html=1;rounded=0;container=0;" parent="216" vertex="1">
                    <mxGeometry x="191.78125" width="169.21875000000006" height="132.24734042553192" as="geometry"/>
                </mxCell>
                <mxCell id="54" value="game_spaces" style="swimlane;fontStyle=0;childLayout=stackLayout;horizontal=1;startSize=26;fillColor=none;horizontalStack=0;resizeParent=1;resizeParentMax=0;resizeLast=0;collapsible=1;marginBottom=0;html=1;rounded=0;container=0;" parent="216" vertex="1">
                    <mxGeometry x="191.78125" y="138.46409574468083" width="169.21875000000006" height="286.53590425531917" as="geometry"/>
                </mxCell>
                <mxCell id="59" value="spaces" style="swimlane;fontStyle=0;childLayout=stackLayout;horizontal=1;startSize=26;fillColor=none;horizontalStack=0;resizeParent=1;resizeParentMax=0;resizeLast=0;collapsible=1;marginBottom=0;html=1;rounded=0;container=0;" parent="216" vertex="1">
                    <mxGeometry x="5.640625" y="215.60837765957444" width="146.65625000000006" height="183.67686170212764" as="geometry"/>
                </mxCell>
                <mxCell id="45" value="game_id&lt;span style=&quot;white-space: pre;&quot;&gt; &lt;/span&gt;&lt;span style=&quot;white-space: pre;&quot;&gt; &lt;/span&gt;FK" style="text;strokeColor=default;fillColor=none;align=left;verticalAlign=top;spacingLeft=4;spacingRight=4;overflow=hidden;rotatable=0;points=[[0,0.5],[1,0.5]];portConstraint=eastwest;whiteSpace=wrap;html=1;rounded=0;container=0;" parent="216" vertex="1">
                    <mxGeometry y="29.388297872340416" width="157.93750000000006" height="25.714760638297868" as="geometry"/>
                </mxCell>
                <mxCell id="40" value="name&lt;span style=&quot;white-space: pre;&quot;&gt; &lt;span style=&quot;white-space: pre;&quot;&gt; &lt;/span&gt;&lt;/span&gt;String" style="text;strokeColor=default;fillColor=none;align=left;verticalAlign=top;spacingLeft=4;spacingRight=4;overflow=hidden;rotatable=0;points=[[0,0.5],[1,0.5]];portConstraint=eastwest;whiteSpace=wrap;html=1;rounded=0;container=0;" parent="216" vertex="1">
                    <mxGeometry y="55.10305851063829" width="157.93750000000006" height="25.714760638297868" as="geometry"/>
                </mxCell>
                <mxCell id="41" value="player_type&lt;span style=&quot;white-space: pre;&quot;&gt; &lt;span style=&quot;white-space: pre;&quot;&gt; &lt;/span&gt;&lt;/span&gt;String" style="text;strokeColor=default;fillColor=none;align=left;verticalAlign=top;spacingLeft=4;spacingRight=4;overflow=hidden;rotatable=0;points=[[0,0.5],[1,0.5]];portConstraint=eastwest;whiteSpace=wrap;html=1;rounded=0;container=0;" parent="216" vertex="1">
                    <mxGeometry y="80.81781914893615" width="157.93750000000006" height="25.714760638297868" as="geometry"/>
                </mxCell>
                <mxCell id="42" value="curr_pos&lt;span style=&quot;white-space: pre;&quot;&gt; &lt;/span&gt;&lt;span style=&quot;white-space: pre;&quot;&gt; &lt;/span&gt;Int" style="text;strokeColor=default;fillColor=none;align=left;verticalAlign=top;spacingLeft=4;spacingRight=4;overflow=hidden;rotatable=0;points=[[0,0.5],[1,0.5]];portConstraint=eastwest;whiteSpace=wrap;html=1;rounded=0;container=0;" parent="216" vertex="1">
                    <mxGeometry y="106.53257978723406" width="157.93750000000006" height="25.714760638297868" as="geometry"/>
                </mxCell>
                <mxCell id="43" value="money&lt;span style=&quot;white-space: pre;&quot;&gt; &lt;/span&gt;&lt;span style=&quot;white-space: pre;&quot;&gt; &lt;/span&gt;Int" style="text;strokeColor=default;fillColor=none;align=left;verticalAlign=top;spacingLeft=4;spacingRight=4;overflow=hidden;rotatable=0;points=[[0,0.5],[1,0.5]];portConstraint=eastwest;whiteSpace=wrap;html=1;rounded=0;container=0;" parent="216" vertex="1">
                    <mxGeometry y="132.24734042553192" width="157.93750000000006" height="25.714760638297868" as="geometry"/>
                </mxCell>
                <mxCell id="44" value="net_worth&lt;span style=&quot;white-space: pre;&quot;&gt; &lt;/span&gt;Int" style="text;strokeColor=default;fillColor=none;align=left;verticalAlign=top;spacingLeft=4;spacingRight=4;overflow=hidden;rotatable=0;points=[[0,0.5],[1,0.5]];portConstraint=eastwest;whiteSpace=wrap;html=1;rounded=0;container=0;" parent="216" vertex="1">
                    <mxGeometry y="157.96210106382978" width="157.93750000000006" height="25.714760638297868" as="geometry"/>
                </mxCell>
                <mxCell id="39" value="id&lt;span style=&quot;white-space: pre;&quot;&gt; &lt;/span&gt;&lt;span style=&quot;white-space: pre;&quot;&gt; &lt;span style=&quot;white-space: pre;&quot;&gt; &lt;/span&gt;&lt;/span&gt;PK" style="text;strokeColor=default;fillColor=none;align=left;verticalAlign=top;spacingLeft=4;spacingRight=4;overflow=hidden;rotatable=0;points=[[0,0.5],[1,0.5]];portConstraint=eastwest;whiteSpace=wrap;html=1;rounded=0;container=0;" parent="216" vertex="1">
                    <mxGeometry y="183.67686170212764" width="157.93750000000006" height="25.714760638297868" as="geometry"/>
                </mxCell>
                <mxCell id="47" value="id&lt;span style=&quot;white-space: pre;&quot;&gt; &lt;/span&gt;&lt;span style=&quot;white-space: pre;&quot;&gt; &lt;span style=&quot;white-space: pre;&quot;&gt; &lt;span style=&quot;white-space: pre;&quot;&gt; &lt;/span&gt;&lt;/span&gt;&lt;/span&gt;PK" style="text;strokeColor=default;fillColor=none;align=left;verticalAlign=top;spacingLeft=4;spacingRight=4;overflow=hidden;rotatable=0;points=[[0,0.5],[1,0.5]];portConstraint=eastwest;whiteSpace=wrap;html=1;rounded=0;container=0;" parent="216" vertex="1">
                    <mxGeometry x="191.78125" y="29.388297872340416" width="169.21875000000006" height="25.714760638297868" as="geometry"/>
                </mxCell>
                <mxCell id="70" style="edgeStyle=orthogonalEdgeStyle;html=1;exitX=0;exitY=0.5;exitDx=0;exitDy=0;entryX=1;entryY=0.5;entryDx=0;entryDy=0;rounded=0;" parent="216" source="47" target="45" edge="1">
                    <mxGeometry relative="1" as="geometry"/>
                </mxCell>
                <mxCell id="48" value="win_condition&lt;span style=&quot;white-space: pre;&quot;&gt; &lt;/span&gt;&lt;span style=&quot;white-space: pre;&quot;&gt; &lt;/span&gt;Int" style="text;strokeColor=default;fillColor=none;align=left;verticalAlign=top;spacingLeft=4;spacingRight=4;overflow=hidden;rotatable=0;points=[[0,0.5],[1,0.5]];portConstraint=eastwest;whiteSpace=wrap;html=1;rounded=0;container=0;" parent="216" vertex="1">
                    <mxGeometry x="191.78125" y="55.10305851063829" width="169.21875000000006" height="25.714760638297868" as="geometry"/>
                </mxCell>
                <mxCell id="49" value="current_player&lt;span style=&quot;white-space: pre;&quot;&gt; &lt;/span&gt;&lt;span style=&quot;white-space: pre;&quot;&gt; &lt;/span&gt;String" style="text;strokeColor=default;fillColor=none;align=left;verticalAlign=top;spacingLeft=4;spacingRight=4;overflow=hidden;rotatable=0;points=[[0,0.5],[1,0.5]];portConstraint=eastwest;whiteSpace=wrap;html=1;rounded=0;container=0;" parent="216" vertex="1">
                    <mxGeometry x="191.78125" y="80.81781914893615" width="169.21875000000006" height="25.714760638297868" as="geometry"/>
                </mxCell>
                <mxCell id="50" value="next_player&lt;span style=&quot;white-space: pre;&quot;&gt; &lt;/span&gt;&lt;span style=&quot;white-space: pre;&quot;&gt; &lt;/span&gt;String" style="text;strokeColor=default;fillColor=none;align=left;verticalAlign=top;spacingLeft=4;spacingRight=4;overflow=hidden;rotatable=0;points=[[0,0.5],[1,0.5]];portConstraint=eastwest;whiteSpace=wrap;html=1;rounded=0;container=0;" parent="216" vertex="1">
                    <mxGeometry x="191.78125" y="106.53257978723406" width="169.21875000000006" height="25.714760638297868" as="geometry"/>
                </mxCell>
                <mxCell id="55" value="id&lt;span style=&quot;white-space: pre;&quot;&gt; &lt;/span&gt;&lt;span style=&quot;white-space: pre;&quot;&gt; &lt;span style=&quot;white-space: pre;&quot;&gt; &lt;span style=&quot;white-space: pre;&quot;&gt; &lt;/span&gt;&lt;/span&gt;&lt;/span&gt;PK" style="text;strokeColor=default;fillColor=none;align=left;verticalAlign=top;spacingLeft=4;spacingRight=4;overflow=hidden;rotatable=0;points=[[0,0.5],[1,0.5]];portConstraint=eastwest;whiteSpace=wrap;html=1;rounded=0;container=0;" parent="216" vertex="1">
                    <mxGeometry x="191.78125" y="167.85239361702128" width="169.21875000000006" height="25.714760638297868" as="geometry"/>
                </mxCell>
                <mxCell id="74" value="player_id&lt;span style=&quot;white-space: pre;&quot;&gt; &lt;/span&gt;&lt;span style=&quot;white-space: pre;&quot;&gt; &lt;/span&gt;&lt;span style=&quot;white-space: pre;&quot;&gt; &lt;/span&gt;FK" style="text;strokeColor=none;fillColor=none;align=left;verticalAlign=top;spacingLeft=4;spacingRight=4;overflow=hidden;rotatable=0;points=[[0,0.5],[1,0.5]];portConstraint=eastwest;whiteSpace=wrap;html=1;rounded=0;container=0;" parent="216" vertex="1">
                    <mxGeometry x="191.78125" y="193.56715425531914" width="169.21875000000006" height="25.714760638297868" as="geometry"/>
                </mxCell>
                <mxCell id="73" style="edgeStyle=orthogonalEdgeStyle;html=1;exitX=1;exitY=0.5;exitDx=0;exitDy=0;entryX=0;entryY=0.5;entryDx=0;entryDy=0;rounded=0;" parent="216" source="39" target="74" edge="1">
                    <mxGeometry relative="1" as="geometry">
                        <mxPoint x="-33.84375" y="425.28257978723406" as="targetPoint"/>
                    </mxGeometry>
                </mxCell>
                <mxCell id="56" value="game_id&lt;span style=&quot;white-space: pre;&quot;&gt; &lt;/span&gt;&lt;span style=&quot;white-space: pre;&quot;&gt; &lt;/span&gt;&lt;span style=&quot;white-space: pre;&quot;&gt; &lt;/span&gt;FK" style="text;strokeColor=default;fillColor=none;align=left;verticalAlign=top;spacingLeft=4;spacingRight=4;overflow=hidden;rotatable=0;points=[[0,0.5],[1,0.5]];portConstraint=eastwest;whiteSpace=wrap;html=1;rounded=0;container=0;" parent="216" vertex="1">
                    <mxGeometry x="191.78125" y="219.281914893617" width="169.21875000000006" height="25.714760638297868" as="geometry"/>
                </mxCell>
                <mxCell id="71" style="edgeStyle=orthogonalEdgeStyle;html=1;exitX=1;exitY=0.5;exitDx=0;exitDy=0;entryX=1;entryY=0.5;entryDx=0;entryDy=0;rounded=0;" parent="216" source="47" target="56" edge="1">
                    <mxGeometry relative="1" as="geometry"/>
                </mxCell>
                <mxCell id="57" value="space_id&lt;span style=&quot;white-space: pre;&quot;&gt; &lt;/span&gt;&lt;span style=&quot;white-space: pre;&quot;&gt; &lt;/span&gt;&lt;span style=&quot;white-space: pre;&quot;&gt; &lt;/span&gt;FK" style="text;strokeColor=default;fillColor=none;align=left;verticalAlign=top;spacingLeft=4;spacingRight=4;overflow=hidden;rotatable=0;points=[[0,0.5],[1,0.5]];portConstraint=eastwest;whiteSpace=wrap;html=1;rounded=0;container=0;" parent="216" vertex="1">
                    <mxGeometry x="191.78125" y="244.9966755319149" width="169.21875000000006" height="25.714760638297868" as="geometry"/>
                </mxCell>
                <mxCell id="79" value="street_name&lt;span style=&quot;white-space: pre;&quot;&gt; &lt;span style=&quot;white-space: pre;&quot;&gt; &lt;/span&gt;&lt;/span&gt;String" style="text;strokeColor=default;fillColor=none;align=left;verticalAlign=top;spacingLeft=4;spacingRight=4;overflow=hidden;rotatable=0;points=[[0,0.5],[1,0.5]];portConstraint=eastwest;whiteSpace=wrap;html=1;rounded=0;container=0;" parent="216" vertex="1">
                    <mxGeometry x="191.78125" y="270.7114361702128" width="169.21875000000006" height="25.714760638297868" as="geometry"/>
                </mxCell>
                <mxCell id="199" value="price&lt;span style=&quot;white-space: pre;&quot;&gt; &lt;/span&gt;&lt;span style=&quot;white-space: pre;&quot;&gt; &lt;/span&gt;&lt;span style=&quot;white-space: pre;&quot;&gt; &lt;/span&gt;INT" style="text;strokeColor=default;fillColor=none;align=left;verticalAlign=top;spacingLeft=4;spacingRight=4;overflow=hidden;rotatable=0;points=[[0,0.5],[1,0.5]];portConstraint=eastwest;whiteSpace=wrap;html=1;rounded=0;container=0;" parent="216" vertex="1">
                    <mxGeometry x="191.78125" y="296.4261968085106" width="169.21875000000006" height="25.714760638297868" as="geometry"/>
                </mxCell>
                <mxCell id="78" value="position&lt;span style=&quot;white-space: pre;&quot;&gt; &lt;/span&gt;&lt;span style=&quot;white-space: pre;&quot;&gt; &lt;/span&gt;&lt;span style=&quot;white-space: pre;&quot;&gt; &lt;/span&gt;INT" style="text;strokeColor=default;fillColor=none;align=left;verticalAlign=top;spacingLeft=4;spacingRight=4;overflow=hidden;rotatable=0;points=[[0,0.5],[1,0.5]];portConstraint=eastwest;whiteSpace=wrap;html=1;rounded=0;container=0;" parent="216" vertex="1">
                    <mxGeometry x="191.78125" y="322.1409574468085" width="169.21875000000006" height="25.714760638297868" as="geometry"/>
                </mxCell>
                <mxCell id="75" value="rent&lt;span style=&quot;white-space: pre;&quot;&gt; &lt;/span&gt;&lt;span style=&quot;white-space: pre;&quot;&gt; &lt;/span&gt;&lt;span style=&quot;white-space: pre;&quot;&gt; &lt;/span&gt;&lt;span style=&quot;white-space: pre;&quot;&gt; &lt;/span&gt;INT" style="text;strokeColor=default;fillColor=none;align=left;verticalAlign=top;spacingLeft=4;spacingRight=4;overflow=hidden;rotatable=0;points=[[0,0.5],[1,0.5]];portConstraint=eastwest;whiteSpace=wrap;html=1;rounded=0;container=0;" parent="216" vertex="1">
                    <mxGeometry x="191.78125" y="347.8557180851064" width="169.21875000000006" height="25.714760638297868" as="geometry"/>
                </mxCell>
                <mxCell id="76" value="houses&lt;span style=&quot;white-space: pre;&quot;&gt; &lt;/span&gt;&lt;span style=&quot;white-space: pre;&quot;&gt; &lt;/span&gt;&lt;span style=&quot;white-space: pre;&quot;&gt; &lt;/span&gt;INT" style="text;strokeColor=default;fillColor=none;align=left;verticalAlign=top;spacingLeft=4;spacingRight=4;overflow=hidden;rotatable=0;points=[[0,0.5],[1,0.5]];portConstraint=eastwest;whiteSpace=wrap;html=1;rounded=0;container=0;" parent="216" vertex="1">
                    <mxGeometry x="191.78125" y="373.5704787234043" width="169.21875000000006" height="25.714760638297868" as="geometry"/>
                </mxCell>
                <mxCell id="77" value="neighborhood&lt;span style=&quot;white-space: pre;&quot;&gt; &lt;/span&gt;&lt;span style=&quot;white-space: pre;&quot;&gt; &lt;/span&gt;String" style="text;strokeColor=default;fillColor=none;align=left;verticalAlign=top;spacingLeft=4;spacingRight=4;overflow=hidden;rotatable=0;points=[[0,0.5],[1,0.5]];portConstraint=eastwest;whiteSpace=wrap;html=1;rounded=0;container=0;" parent="216" vertex="1">
                    <mxGeometry x="191.78125" y="399.28523936170217" width="169.21875000000006" height="25.714760638297868" as="geometry"/>
                </mxCell>
                <mxCell id="60" value="id&lt;span style=&quot;white-space: pre;&quot;&gt; &lt;/span&gt;&lt;span style=&quot;white-space: pre;&quot;&gt; &lt;span style=&quot;white-space: pre;&quot;&gt; &lt;/span&gt;&lt;/span&gt;PK" style="text;strokeColor=default;fillColor=none;align=left;verticalAlign=top;spacingLeft=4;spacingRight=4;overflow=hidden;rotatable=0;points=[[0,0.5],[1,0.5]];portConstraint=eastwest;whiteSpace=wrap;html=1;rounded=0;container=0;" parent="216" vertex="1">
                    <mxGeometry x="5.640625" y="244.9966755319149" width="146.65625000000006" height="25.714760638297868" as="geometry"/>
                </mxCell>
                <mxCell id="72" style="edgeStyle=orthogonalEdgeStyle;html=1;rounded=0;" parent="216" source="60" target="57" edge="1">
                    <mxGeometry relative="1" as="geometry">
                        <mxPoint x="485.09375" y="267.0378989361702" as="sourcePoint"/>
                    </mxGeometry>
                </mxCell>
                <mxCell id="61" value="street_name&lt;span style=&quot;white-space: pre;&quot;&gt; &lt;/span&gt;String" style="text;strokeColor=default;fillColor=none;align=left;verticalAlign=top;spacingLeft=4;spacingRight=4;overflow=hidden;rotatable=0;points=[[0,0.5],[1,0.5]];portConstraint=eastwest;whiteSpace=wrap;html=1;rounded=0;container=0;" parent="216" vertex="1">
                    <mxGeometry x="5.640625" y="270.7114361702128" width="146.65625000000006" height="25.714760638297868" as="geometry"/>
                </mxCell>
                <mxCell id="63" value="position&lt;span style=&quot;white-space: pre;&quot;&gt; &lt;/span&gt;&lt;span style=&quot;white-space: pre;&quot;&gt; &lt;/span&gt;Int" style="text;strokeColor=default;fillColor=none;align=left;verticalAlign=top;spacingLeft=4;spacingRight=4;overflow=hidden;rotatable=0;points=[[0,0.5],[1,0.5]];portConstraint=eastwest;whiteSpace=wrap;html=1;rounded=0;container=0;" parent="216" vertex="1">
                    <mxGeometry x="5.640625" y="296.4261968085106" width="146.65625000000006" height="25.714760638297868" as="geometry"/>
                </mxCell>
                <mxCell id="62" value="rent&lt;span style=&quot;white-space: pre;&quot;&gt; &lt;/span&gt;&lt;span style=&quot;white-space: pre;&quot;&gt; &lt;/span&gt;&lt;span style=&quot;white-space: pre;&quot;&gt; &lt;/span&gt;Int" style="text;strokeColor=default;fillColor=none;align=left;verticalAlign=top;spacingLeft=4;spacingRight=4;overflow=hidden;rotatable=0;points=[[0,0.5],[1,0.5]];portConstraint=eastwest;whiteSpace=wrap;html=1;rounded=0;container=0;" parent="216" vertex="1">
                    <mxGeometry x="5.640625" y="322.1409574468085" width="146.65625000000006" height="25.714760638297868" as="geometry"/>
                </mxCell>
                <mxCell id="65" value="houses&lt;span style=&quot;white-space: pre;&quot;&gt; &lt;span style=&quot;white-space: pre;&quot;&gt; &lt;/span&gt;Int&lt;/span&gt;" style="text;strokeColor=default;fillColor=none;align=left;verticalAlign=top;spacingLeft=4;spacingRight=4;overflow=hidden;rotatable=0;points=[[0,0.5],[1,0.5]];portConstraint=eastwest;whiteSpace=wrap;html=1;rounded=0;container=0;" parent="216" vertex="1">
                    <mxGeometry x="5.640625" y="347.8557180851064" width="146.65625000000006" height="25.714760638297868" as="geometry"/>
                </mxCell>
                <mxCell id="64" value="neighborhood&lt;span style=&quot;white-space: pre;&quot;&gt; &lt;/span&gt;String" style="text;strokeColor=default;fillColor=none;align=left;verticalAlign=top;spacingLeft=4;spacingRight=4;overflow=hidden;rotatable=0;points=[[0,0.5],[1,0.5]];portConstraint=eastwest;whiteSpace=wrap;html=1;rounded=0;container=0;" parent="216" vertex="1">
                    <mxGeometry x="5.640625" y="373.5704787234043" width="146.65625000000006" height="25.714760638297868" as="geometry"/>
                </mxCell>
                <mxCell id="217" value="" style="group;" parent="1" vertex="1" connectable="0">
                    <mxGeometry x="495" y="86" width="430" height="601.2690058479532" as="geometry"/>
                </mxCell>
                <mxCell id="105" value="&lt;font color=&quot;#000000&quot; style=&quot;font-size: 10px;&quot;&gt;&amp;nbsp;Player Home&lt;/font&gt;" style="swimlane;fontStyle=0;childLayout=stackLayout;horizontal=1;startSize=26;horizontalStack=0;resizeParent=1;resizeParentMax=0;resizeLast=0;collapsible=1;marginBottom=0;html=1;labelBackgroundColor=none;align=center;verticalAlign=middle;fontColor=#ffffff;fillColor=#647687;strokeColor=#314354;container=0;movable=1;resizable=1;rotatable=1;deletable=1;editable=1;connectable=1;rounded=0;" parent="217" vertex="1">
                    <mxGeometry y="257.0350877192982" width="61.42857142857143" height="88.94736842105263" as="geometry"/>
                </mxCell>
                <mxCell id="117" value="&lt;font color=&quot;#000000&quot;&gt;Casino&lt;/font&gt;" style="swimlane;fontStyle=0;childLayout=stackLayout;horizontal=1;startSize=26;horizontalStack=0;resizeParent=1;resizeParentMax=0;resizeLast=0;collapsible=1;marginBottom=0;html=1;labelBackgroundColor=none;align=center;verticalAlign=middle;fillColor=#f8cecc;gradientColor=#ea6b66;strokeColor=#b85450;container=0;movable=1;resizable=1;rotatable=1;deletable=1;editable=1;connectable=1;rounded=0;" parent="217" vertex="1">
                    <mxGeometry y="512.3216374269006" width="61.42857142857143" height="88.94736842105263" as="geometry"/>
                </mxCell>
                <mxCell id="125" value="&lt;font color=&quot;#000000&quot;&gt;unowned&lt;/font&gt;" style="swimlane;fontStyle=0;childLayout=stackLayout;horizontal=1;startSize=26;horizontalStack=0;resizeParent=1;resizeParentMax=0;resizeLast=0;collapsible=1;marginBottom=0;html=1;labelBackgroundColor=none;align=center;verticalAlign=middle;fillColor=#6a00ff;strokeColor=#3700CC;fontColor=#ffffff;container=0;movable=1;resizable=1;rotatable=1;deletable=1;editable=1;connectable=1;rounded=0;" parent="217" vertex="1">
                    <mxGeometry y="340.96" width="61.43" height="89.04" as="geometry"/>
                </mxCell>
                <mxCell id="133" value="&lt;font color=&quot;#000000&quot;&gt;unowned&lt;/font&gt;" style="swimlane;fontStyle=0;childLayout=stackLayout;horizontal=1;startSize=26;horizontalStack=0;resizeParent=1;resizeParentMax=0;resizeLast=0;collapsible=1;marginBottom=0;html=1;labelBackgroundColor=none;align=center;verticalAlign=middle;fillColor=#fa6800;strokeColor=#C73500;fontColor=#000000;container=0;movable=1;resizable=1;rotatable=1;deletable=1;editable=1;connectable=1;rounded=0;" parent="217" vertex="1">
                    <mxGeometry y="171.35672514619887" width="61.42857142857143" height="88.94736842105263" as="geometry"/>
                </mxCell>
                <mxCell id="137" value="&lt;font color=&quot;#000000&quot;&gt;unowned&lt;/font&gt;" style="swimlane;fontStyle=0;childLayout=stackLayout;horizontal=1;startSize=26;horizontalStack=0;resizeParent=1;resizeParentMax=0;resizeLast=0;collapsible=1;marginBottom=0;html=1;labelBackgroundColor=none;align=center;verticalAlign=middle;fillColor=#fa6800;strokeColor=#C73500;fontColor=#000000;container=0;movable=1;resizable=1;rotatable=1;deletable=1;editable=1;connectable=1;rounded=0;" parent="217" vertex="1">
                    <mxGeometry y="85.67836257309943" width="61.42857142857143" height="88.94736842105263" as="geometry"/>
                </mxCell>
                <mxCell id="141" value="&lt;font style=&quot;font-size: 11px;&quot; color=&quot;#000000&quot;&gt;Buy Scratch&lt;br&gt;Ticket?&lt;/font&gt;" style="swimlane;fontStyle=0;childLayout=stackLayout;horizontal=1;startSize=26;horizontalStack=0;resizeParent=1;resizeParentMax=0;resizeLast=0;collapsible=1;marginBottom=0;html=1;labelBackgroundColor=none;align=center;verticalAlign=middle;fillColor=#f8cecc;strokeColor=#b85450;gradientColor=#ea6b66;container=0;movable=1;resizable=1;rotatable=1;deletable=1;editable=1;connectable=1;rounded=0;" parent="217" vertex="1">
                    <mxGeometry width="61.42857142857143" height="92.44444444444444" as="geometry"/>
                </mxCell>
                <mxCell id="169" style="edgeStyle=orthogonalEdgeStyle;html=1;exitX=0.5;exitY=0;exitDx=0;exitDy=0;entryX=0.5;entryY=1;entryDx=0;entryDy=0;entryPerimeter=0;fontColor=#000000;movable=1;resizable=1;rotatable=1;deletable=1;editable=1;connectable=1;rounded=0;" parent="217" source="105" target="136" edge="1">
                    <mxGeometry relative="1" as="geometry"/>
                </mxCell>
                <mxCell id="106" value="Pos&amp;nbsp;&lt;span style=&quot;white-space: pre;&quot;&gt; &lt;span style=&quot;white-space: pre;&quot;&gt; 10&lt;/span&gt;&lt;/span&gt;" style="text;strokeColor=none;fillColor=none;align=left;verticalAlign=top;spacingLeft=4;spacingRight=4;overflow=hidden;rotatable=1;points=[[0,0.5],[1,0.5]];portConstraint=eastwest;whiteSpace=wrap;html=1;labelBackgroundColor=none;fontColor=#FFFFFF;container=0;movable=1;resizable=1;deletable=1;editable=1;connectable=1;rounded=0;" parent="217" vertex="1">
                    <mxGeometry y="283.0350877192982" width="61.42857142857143" height="20.982456140350873" as="geometry"/>
                </mxCell>
                <mxCell id="107" value="Rent&lt;span style=&quot;white-space: pre;&quot;&gt; 100&lt;/span&gt;" style="text;strokeColor=none;fillColor=none;align=left;verticalAlign=top;spacingLeft=4;spacingRight=4;overflow=hidden;rotatable=1;points=[[0,0.5],[1,0.5]];portConstraint=eastwest;whiteSpace=wrap;html=1;labelBackgroundColor=none;fontColor=#FFFFFF;container=0;movable=1;resizable=1;deletable=1;editable=1;connectable=1;rounded=0;" parent="217" vertex="1">
                    <mxGeometry y="304.0175438596491" width="61.42857142857143" height="20.982456140350873" as="geometry"/>
                </mxCell>
                <mxCell id="108" value="&amp;nbsp;" style="text;strokeColor=none;fillColor=none;align=left;verticalAlign=top;spacingLeft=4;spacingRight=4;overflow=hidden;rotatable=1;points=[[0,0.5],[1,0.5]];portConstraint=eastwest;whiteSpace=wrap;html=1;labelBackgroundColor=none;fontColor=#FFFFFF;container=0;movable=1;resizable=1;deletable=1;editable=1;connectable=1;rounded=0;" parent="217" vertex="1">
                    <mxGeometry y="325" width="61.42857142857143" height="20.982456140350873" as="geometry"/>
                </mxCell>
                <mxCell id="118" value="Pos&amp;nbsp;&lt;span style=&quot;white-space: pre;&quot;&gt; &lt;span style=&quot;white-space: pre;&quot;&gt; 7&lt;/span&gt;&lt;/span&gt;" style="text;strokeColor=none;fillColor=none;align=left;verticalAlign=top;spacingLeft=4;spacingRight=4;overflow=hidden;rotatable=1;points=[[0,0.5],[1,0.5]];portConstraint=eastwest;whiteSpace=wrap;html=1;labelBackgroundColor=none;fontColor=#FFFFFF;container=0;movable=1;resizable=1;deletable=1;editable=1;connectable=1;rounded=0;" parent="217" vertex="1">
                    <mxGeometry y="538.3216374269006" width="61.42857142857143" height="20.982456140350873" as="geometry"/>
                </mxCell>
                <mxCell id="119" value="&amp;nbsp;" style="text;strokeColor=none;fillColor=none;align=left;verticalAlign=top;spacingLeft=4;spacingRight=4;overflow=hidden;rotatable=1;points=[[0,0.5],[1,0.5]];portConstraint=eastwest;whiteSpace=wrap;html=1;labelBackgroundColor=none;fontColor=#FFFFFF;container=0;movable=1;resizable=1;deletable=1;editable=1;connectable=1;rounded=0;" parent="217" vertex="1">
                    <mxGeometry y="559.3040935672515" width="61.42857142857143" height="20.982456140350873" as="geometry"/>
                </mxCell>
                <mxCell id="120" value="&amp;nbsp;" style="text;strokeColor=none;fillColor=none;align=left;verticalAlign=top;spacingLeft=4;spacingRight=4;overflow=hidden;rotatable=1;points=[[0,0.5],[1,0.5]];portConstraint=eastwest;whiteSpace=wrap;html=1;labelBackgroundColor=none;fontColor=#FFFFFF;container=0;movable=1;resizable=1;deletable=1;editable=1;connectable=1;rounded=0;" parent="217" vertex="1">
                    <mxGeometry y="580.2865497076023" width="61.42857142857143" height="20.982456140350873" as="geometry"/>
                </mxCell>
                <mxCell id="126" value="Pos&amp;nbsp;&lt;span style=&quot;white-space: pre;&quot;&gt; &lt;span style=&quot;white-space: pre;&quot;&gt; 9&lt;/span&gt;&lt;/span&gt;" style="text;strokeColor=none;fillColor=none;align=left;verticalAlign=top;spacingLeft=4;spacingRight=4;overflow=hidden;rotatable=1;points=[[0,0.5],[1,0.5]];portConstraint=eastwest;whiteSpace=wrap;html=1;labelBackgroundColor=none;fontColor=#FFFFFF;container=0;movable=1;resizable=1;deletable=1;editable=1;connectable=1;rounded=0;" parent="217" vertex="1">
                    <mxGeometry y="366.9649122807018" width="61.42857142857143" height="20.982456140350873" as="geometry"/>
                </mxCell>
                <mxCell id="127" value="Rent&lt;span style=&quot;white-space: pre;&quot;&gt; 80&lt;/span&gt;" style="text;strokeColor=none;fillColor=none;align=left;verticalAlign=top;spacingLeft=4;spacingRight=4;overflow=hidden;rotatable=1;points=[[0,0.5],[1,0.5]];portConstraint=eastwest;whiteSpace=wrap;html=1;labelBackgroundColor=none;fontColor=#FFFFFF;container=0;movable=1;resizable=1;deletable=1;editable=1;connectable=1;rounded=0;" parent="217" vertex="1">
                    <mxGeometry y="387.9473684210527" width="61.42857142857143" height="20.982456140350873" as="geometry"/>
                </mxCell>
                <mxCell id="191" value="Price&lt;span style=&quot;white-space: pre;&quot;&gt; 160&lt;/span&gt;" style="text;strokeColor=none;fillColor=none;align=left;verticalAlign=top;spacingLeft=4;spacingRight=4;overflow=hidden;rotatable=1;points=[[0,0.5],[1,0.5]];portConstraint=eastwest;whiteSpace=wrap;html=1;labelBackgroundColor=none;fontColor=#FFFFFF;container=0;movable=1;resizable=1;deletable=1;editable=1;connectable=1;rounded=0;" parent="217" vertex="1">
                    <mxGeometry y="408.9298245614036" width="61.42857142857143" height="20.982456140350873" as="geometry"/>
                </mxCell>
                <mxCell id="134" value="Pos&amp;nbsp;&lt;span style=&quot;white-space: pre;&quot;&gt; &lt;span style=&quot;white-space: pre;&quot;&gt; 11&lt;/span&gt;&lt;/span&gt;" style="text;strokeColor=none;fillColor=none;align=left;verticalAlign=top;spacingLeft=4;spacingRight=4;overflow=hidden;rotatable=1;points=[[0,0.5],[1,0.5]];portConstraint=eastwest;whiteSpace=wrap;html=1;labelBackgroundColor=none;fontColor=#FFFFFF;container=0;movable=1;resizable=1;deletable=1;editable=1;connectable=1;rounded=0;" parent="217" vertex="1">
                    <mxGeometry y="197.35672514619887" width="61.42857142857143" height="20.982456140350873" as="geometry"/>
                </mxCell>
                <mxCell id="135" value="Rent&lt;span style=&quot;white-space: pre;&quot;&gt; 90&lt;/span&gt;" style="text;strokeColor=none;fillColor=none;align=left;verticalAlign=top;spacingLeft=4;spacingRight=4;overflow=hidden;rotatable=1;points=[[0,0.5],[1,0.5]];portConstraint=eastwest;whiteSpace=wrap;html=1;labelBackgroundColor=none;fontColor=#FFFFFF;container=0;movable=1;resizable=1;deletable=1;editable=1;connectable=1;rounded=0;" parent="217" vertex="1">
                    <mxGeometry y="218.33918128654977" width="61.42857142857143" height="20.982456140350873" as="geometry"/>
                </mxCell>
                <mxCell id="136" value="Price&lt;span style=&quot;white-space: pre;&quot;&gt; 180&lt;/span&gt;" style="text;strokeColor=none;fillColor=none;align=left;verticalAlign=top;spacingLeft=4;spacingRight=4;overflow=hidden;rotatable=1;points=[[0,0.5],[1,0.5]];portConstraint=eastwest;whiteSpace=wrap;html=1;labelBackgroundColor=none;fontColor=#FFFFFF;container=0;movable=1;resizable=1;deletable=1;editable=1;connectable=1;rounded=0;" parent="217" vertex="1">
                    <mxGeometry y="239.32163742690068" width="61.42857142857143" height="20.982456140350873" as="geometry"/>
                </mxCell>
                <mxCell id="138" value="Pos&amp;nbsp;&lt;span style=&quot;white-space: pre;&quot;&gt; &lt;span style=&quot;white-space: pre;&quot;&gt; 12&lt;/span&gt;&lt;/span&gt;" style="text;strokeColor=none;fillColor=none;align=left;verticalAlign=top;spacingLeft=4;spacingRight=4;overflow=hidden;rotatable=1;points=[[0,0.5],[1,0.5]];portConstraint=eastwest;whiteSpace=wrap;html=1;labelBackgroundColor=none;fontColor=#FFFFFF;container=0;movable=1;resizable=1;deletable=1;editable=1;connectable=1;rounded=0;" parent="217" vertex="1">
                    <mxGeometry y="111.67836257309943" width="61.42857142857143" height="20.982456140350873" as="geometry"/>
                </mxCell>
                <mxCell id="139" value="Rent&lt;span style=&quot;white-space: pre;&quot;&gt; 100&lt;/span&gt;" style="text;strokeColor=none;fillColor=none;align=left;verticalAlign=top;spacingLeft=4;spacingRight=4;overflow=hidden;rotatable=1;points=[[0,0.5],[1,0.5]];portConstraint=eastwest;whiteSpace=wrap;html=1;labelBackgroundColor=none;fontColor=#FFFFFF;container=0;movable=1;resizable=1;deletable=1;editable=1;connectable=1;rounded=0;" parent="217" vertex="1">
                    <mxGeometry y="132.66081871345034" width="61.42857142857143" height="20.982456140350873" as="geometry"/>
                </mxCell>
                <mxCell id="140" value="Price&lt;span style=&quot;white-space: pre;&quot;&gt;&amp;nbsp;200&lt;/span&gt;" style="text;strokeColor=none;fillColor=none;align=left;verticalAlign=top;spacingLeft=4;spacingRight=4;overflow=hidden;rotatable=1;points=[[0,0.5],[1,0.5]];portConstraint=eastwest;whiteSpace=wrap;html=1;labelBackgroundColor=none;fontColor=#FFFFFF;container=0;movable=1;resizable=1;deletable=1;editable=1;connectable=1;rounded=0;" parent="217" vertex="1">
                    <mxGeometry y="153.64327485380113" width="61.42857142857143" height="20.982456140350873" as="geometry"/>
                </mxCell>
                <mxCell id="142" value="Pos&amp;nbsp;&lt;span style=&quot;white-space: pre;&quot;&gt; &lt;span style=&quot;white-space: pre;&quot;&gt; 13&lt;/span&gt;&lt;/span&gt;" style="text;fillColor=none;align=left;verticalAlign=top;spacingLeft=4;spacingRight=4;overflow=hidden;rotatable=1;points=[[0,0.5],[1,0.5]];portConstraint=eastwest;whiteSpace=wrap;html=1;labelBackgroundColor=none;strokeColor=none;container=0;movable=1;resizable=1;deletable=1;editable=1;connectable=1;rounded=0;" parent="217" vertex="1">
                    <mxGeometry y="26" width="61.42857142857143" height="20.98245614035088" as="geometry"/>
                </mxCell>
                <mxCell id="193" value="&amp;nbsp;" style="text;fillColor=none;align=left;verticalAlign=top;spacingLeft=4;spacingRight=4;overflow=hidden;rotatable=1;points=[[0,0.5],[1,0.5]];portConstraint=eastwest;whiteSpace=wrap;html=1;labelBackgroundColor=none;strokeColor=none;container=0;movable=1;resizable=1;deletable=1;editable=1;connectable=1;rounded=0;" parent="217" vertex="1">
                    <mxGeometry y="46.982456140350905" width="61.42857142857143" height="20.98245614035088" as="geometry"/>
                </mxCell>
                <mxCell id="194" value="&amp;nbsp;" style="text;fillColor=none;align=left;verticalAlign=top;spacingLeft=4;spacingRight=4;overflow=hidden;rotatable=1;points=[[0,0.5],[1,0.5]];portConstraint=eastwest;whiteSpace=wrap;html=1;labelBackgroundColor=none;strokeColor=none;container=0;movable=1;resizable=1;deletable=1;editable=1;connectable=1;rounded=0;" parent="217" vertex="1">
                    <mxGeometry y="67.96491228070175" width="61.42857142857143" height="24.479532163742693" as="geometry"/>
                </mxCell>
                <mxCell id="89" value="&lt;font color=&quot;#000000&quot;&gt;GO&lt;/font&gt;" style="swimlane;fontStyle=0;childLayout=stackLayout;horizontal=1;startSize=26;horizontalStack=0;resizeParent=1;resizeParentMax=0;resizeLast=0;collapsible=1;marginBottom=0;html=1;labelBackgroundColor=none;align=center;verticalAlign=middle;fillColor=#f8cecc;gradientColor=#ea6b66;strokeColor=#b85450;container=0;movable=1;resizable=1;rotatable=1;deletable=1;editable=1;connectable=1;rounded=0;" parent="217" vertex="1">
                    <mxGeometry x="368.57142857142867" y="512.3216374269006" width="61.42857142857143" height="88.94736842105263" as="geometry"/>
                </mxCell>
                <mxCell id="129" value="&lt;font color=&quot;#000000&quot;&gt;unowned&lt;/font&gt;" style="swimlane;fontStyle=0;childLayout=stackLayout;horizontal=1;startSize=26;horizontalStack=0;resizeParent=1;resizeParentMax=0;resizeLast=0;collapsible=1;marginBottom=0;html=1;labelBackgroundColor=none;align=center;verticalAlign=middle;fillColor=#6d8764;strokeColor=#3A5431;fontColor=#ffffff;container=0;movable=1;resizable=1;rotatable=1;deletable=1;editable=1;connectable=1;rounded=0;" parent="217" vertex="1">
                    <mxGeometry x="368.57142857142867" y="168.08672514619877" width="61.42857142857143" height="88.94736842105263" as="geometry"/>
                </mxCell>
                <mxCell id="145" value="&lt;font color=&quot;#000000&quot;&gt;unowned&lt;/font&gt;" style="swimlane;fontStyle=0;childLayout=stackLayout;horizontal=1;startSize=26;horizontalStack=0;resizeParent=1;resizeParentMax=0;resizeLast=0;collapsible=1;marginBottom=0;html=1;labelBackgroundColor=none;align=center;verticalAlign=middle;fillColor=#e51400;strokeColor=#B20000;fontColor=#ffffff;container=0;movable=1;resizable=1;rotatable=1;deletable=1;editable=1;connectable=1;rounded=0;" parent="217" vertex="1">
                    <mxGeometry x="61.428571428571445" width="61.42857142857143" height="88.94736842105263" as="geometry"/>
                </mxCell>
                <mxCell id="149" value="&lt;font color=&quot;#000000&quot;&gt;unowned&lt;/font&gt;" style="swimlane;fontStyle=0;childLayout=stackLayout;horizontal=1;startSize=26;horizontalStack=0;resizeParent=1;resizeParentMax=0;resizeLast=0;collapsible=1;marginBottom=0;html=1;labelBackgroundColor=none;align=center;verticalAlign=middle;fillColor=#e51400;strokeColor=#B20000;fontColor=#ffffff;container=0;movable=1;resizable=1;rotatable=1;deletable=1;editable=1;connectable=1;rounded=0;" parent="217" vertex="1">
                    <mxGeometry x="122.85714285714289" width="61.42857142857143" height="88.94736842105263" as="geometry"/>
                </mxCell>
                <mxCell id="153" value="&lt;font color=&quot;#000000&quot;&gt;unowned&lt;/font&gt;" style="swimlane;fontStyle=0;childLayout=stackLayout;horizontal=1;startSize=26;horizontalStack=0;resizeParent=1;resizeParentMax=0;resizeLast=0;collapsible=1;marginBottom=0;html=1;labelBackgroundColor=none;align=center;verticalAlign=middle;fillColor=#6d8764;strokeColor=#3A5431;fontColor=#ffffff;container=0;movable=1;resizable=1;rotatable=1;deletable=1;editable=1;connectable=1;rounded=0;" parent="217" vertex="1">
                    <mxGeometry x="368.57142857142867" y="82.4083625730994" width="61.42857142857143" height="88.94736842105263" as="geometry"/>
                </mxCell>
                <mxCell id="157" value="&lt;font color=&quot;#000000&quot;&gt;unowned&lt;/font&gt;" style="swimlane;fontStyle=0;childLayout=stackLayout;horizontal=1;startSize=26;horizontalStack=0;resizeParent=1;resizeParentMax=0;resizeLast=0;collapsible=1;marginBottom=0;html=1;labelBackgroundColor=none;align=center;verticalAlign=middle;fillColor=#e3c800;strokeColor=#B09500;fontColor=#000000;container=0;movable=1;resizable=1;rotatable=1;deletable=1;editable=1;connectable=1;rounded=0;" parent="217" vertex="1">
                    <mxGeometry x="245.71428571428578" width="61.42857142857143" height="88.94736842105263" as="geometry"/>
                </mxCell>
                <mxCell id="161" value="&lt;font color=&quot;#000000&quot;&gt;unowned&lt;/font&gt;" style="swimlane;fontStyle=0;childLayout=stackLayout;horizontal=1;startSize=26;horizontalStack=0;resizeParent=1;resizeParentMax=0;resizeLast=0;collapsible=1;marginBottom=0;html=1;labelBackgroundColor=none;align=center;verticalAlign=middle;fillColor=#e3c800;strokeColor=#B09500;fontColor=#000000;container=0;movable=1;resizable=1;rotatable=1;deletable=1;editable=1;connectable=1;rounded=0;" parent="217" vertex="1">
                    <mxGeometry x="307.1428571428571" width="61.42857142857143" height="88.94736842105263" as="geometry"/>
                </mxCell>
                <mxCell id="165" value="&lt;font color=&quot;#000000&quot;&gt;Pay HOA&lt;/font&gt;" style="swimlane;fontStyle=0;childLayout=stackLayout;horizontal=1;startSize=26;horizontalStack=0;resizeParent=1;resizeParentMax=0;resizeLast=0;collapsible=1;marginBottom=0;html=1;labelBackgroundColor=none;align=center;verticalAlign=middle;fillColor=#f8cecc;strokeColor=#b85450;gradientColor=#ea6b66;container=0;movable=1;resizable=1;rotatable=1;deletable=1;editable=1;connectable=1;rounded=0;" parent="217" vertex="1">
                    <mxGeometry x="368.57142857142867" width="61.42857142857143" height="88.94736842105263" as="geometry"/>
                </mxCell>
                <mxCell id="170" value="&lt;font color=&quot;#000000&quot; style=&quot;font-size: 10px;&quot;&gt;&amp;nbsp;Player Home&lt;/font&gt;" style="swimlane;fontStyle=0;childLayout=stackLayout;horizontal=1;startSize=26;horizontalStack=0;resizeParent=1;resizeParentMax=0;resizeLast=0;collapsible=1;marginBottom=0;html=1;labelBackgroundColor=none;align=center;verticalAlign=middle;fontColor=#ffffff;fillColor=#647687;strokeColor=#314354;container=0;movable=1;resizable=1;rotatable=1;deletable=1;editable=1;connectable=1;rounded=0;" parent="217" vertex="1">
                    <mxGeometry x="184.28571428571433" width="61.42857142857143" height="88.94736842105263" as="geometry"/>
                </mxCell>
                <mxCell id="174" value="&lt;font color=&quot;#000000&quot; style=&quot;font-size: 10px;&quot;&gt;Player Home&lt;/font&gt;" style="swimlane;fontStyle=0;childLayout=stackLayout;horizontal=1;startSize=26;horizontalStack=0;resizeParent=1;resizeParentMax=0;resizeLast=0;collapsible=1;marginBottom=0;html=1;labelBackgroundColor=none;align=center;verticalAlign=middle;fontColor=#ffffff;fillColor=#647687;strokeColor=#314354;container=0;movable=1;resizable=1;rotatable=1;deletable=1;editable=1;connectable=1;rounded=0;" parent="217" vertex="1">
                    <mxGeometry x="368.57142857142867" y="253.7650877192982" width="61.42857142857143" height="88.94736842105263" as="geometry"/>
                </mxCell>
                <mxCell id="179" value="&lt;font color=&quot;#000000&quot;&gt;unowned&lt;/font&gt;" style="swimlane;fontStyle=0;childLayout=stackLayout;horizontal=1;startSize=26;horizontalStack=0;resizeParent=1;resizeParentMax=0;resizeLast=0;collapsible=1;marginBottom=0;html=1;labelBackgroundColor=none;align=center;verticalAlign=middle;fillColor=#0050ef;strokeColor=#001DBC;fontColor=#ffffff;container=0;movable=1;resizable=1;rotatable=1;deletable=1;editable=1;connectable=1;rounded=0;" parent="217" vertex="1">
                    <mxGeometry x="368.57142857142867" y="334.42345029239755" width="61.42857142857143" height="177.89473684210526" as="geometry"/>
                </mxCell>
                <mxCell id="90" value="Position 1" style="text;strokeColor=none;fillColor=none;align=left;verticalAlign=top;spacingLeft=4;spacingRight=4;overflow=hidden;rotatable=1;points=[[0,0.5],[1,0.5]];portConstraint=eastwest;whiteSpace=wrap;html=1;labelBackgroundColor=none;fontColor=#FFFFFF;container=0;movable=1;resizable=1;deletable=1;editable=1;connectable=1;rounded=0;" parent="217" vertex="1">
                    <mxGeometry x="368.57142857142867" y="538.3216374269006" width="61.42857142857143" height="20.982456140350873" as="geometry"/>
                </mxCell>
                <mxCell id="93" value="Get Paid" style="text;strokeColor=none;fillColor=none;align=left;verticalAlign=top;spacingLeft=4;spacingRight=4;overflow=hidden;rotatable=1;points=[[0,0.5],[1,0.5]];portConstraint=eastwest;whiteSpace=wrap;html=1;labelBackgroundColor=none;fontColor=#FFFFFF;container=0;movable=1;resizable=1;deletable=1;editable=1;connectable=1;rounded=0;" parent="217" vertex="1">
                    <mxGeometry x="368.57142857142867" y="559.3040935672515" width="61.42857142857143" height="20.982456140350873" as="geometry"/>
                </mxCell>
                <mxCell id="98" value="&amp;nbsp;" style="text;strokeColor=none;fillColor=none;align=left;verticalAlign=top;spacingLeft=4;spacingRight=4;overflow=hidden;rotatable=1;points=[[0,0.5],[1,0.5]];portConstraint=eastwest;whiteSpace=wrap;html=1;labelBackgroundColor=none;fontColor=#FFFFFF;container=0;movable=1;resizable=1;deletable=1;editable=1;connectable=1;rounded=0;" parent="217" vertex="1">
                    <mxGeometry x="368.57142857142867" y="580.2865497076023" width="61.42857142857143" height="20.982456140350873" as="geometry"/>
                </mxCell>
                <mxCell id="95" value="Pos&amp;nbsp;&lt;span style=&quot;white-space: pre;&quot;&gt; &lt;span style=&quot;white-space: pre;&quot;&gt; &lt;/span&gt;&lt;/span&gt;2" style="text;strokeColor=none;fillColor=none;align=left;verticalAlign=top;spacingLeft=4;spacingRight=4;overflow=hidden;rotatable=1;points=[[0,0.5],[1,0.5]];portConstraint=eastwest;whiteSpace=wrap;html=1;labelBackgroundColor=none;fontColor=#FFFFFF;container=0;movable=1;resizable=1;deletable=1;editable=1;connectable=1;rounded=0;" parent="217" vertex="1">
                    <mxGeometry x="307.1428571428571" y="538.3216374269006" width="61.42857142857143" height="20.982456140350873" as="geometry"/>
                </mxCell>
                <mxCell id="100" value="Pos&amp;nbsp;&lt;span style=&quot;white-space: pre;&quot;&gt; &lt;span style=&quot;white-space: pre;&quot;&gt; 3&lt;/span&gt;&lt;/span&gt;" style="text;strokeColor=none;fillColor=none;align=left;verticalAlign=top;spacingLeft=4;spacingRight=4;overflow=hidden;rotatable=1;points=[[0,0.5],[1,0.5]];portConstraint=eastwest;whiteSpace=wrap;html=1;labelBackgroundColor=none;fontColor=#FFFFFF;container=0;movable=1;resizable=1;deletable=1;editable=1;connectable=1;rounded=0;" parent="217" vertex="1">
                    <mxGeometry x="245.71428571428578" y="538.3216374269006" width="61.42857142857143" height="20.982456140350873" as="geometry"/>
                </mxCell>
                <mxCell id="130" value="Pos&amp;nbsp;&lt;span style=&quot;white-space: pre;&quot;&gt; &lt;span style=&quot;white-space: pre;&quot;&gt; 21&lt;/span&gt;&lt;/span&gt;" style="text;strokeColor=none;fillColor=none;align=left;verticalAlign=top;spacingLeft=4;spacingRight=4;overflow=hidden;rotatable=1;points=[[0,0.5],[1,0.5]];portConstraint=eastwest;whiteSpace=wrap;html=1;labelBackgroundColor=none;fontColor=#FFFFFF;container=0;movable=1;resizable=1;deletable=1;editable=1;connectable=1;rounded=0;" parent="217" vertex="1">
                    <mxGeometry x="368.57142857142867" y="194.08672514619877" width="61.42857142857143" height="20.982456140350873" as="geometry"/>
                </mxCell>
                <mxCell id="131" value="Rent&lt;span style=&quot;white-space: pre;&quot;&gt; 160&lt;/span&gt;" style="text;strokeColor=none;fillColor=none;align=left;verticalAlign=top;spacingLeft=4;spacingRight=4;overflow=hidden;rotatable=1;points=[[0,0.5],[1,0.5]];portConstraint=eastwest;whiteSpace=wrap;html=1;labelBackgroundColor=none;fontColor=#FFFFFF;container=0;movable=1;resizable=1;deletable=1;editable=1;connectable=1;rounded=0;" parent="217" vertex="1">
                    <mxGeometry x="368.57142857142867" y="215.06918128654968" width="61.42857142857143" height="20.982456140350873" as="geometry"/>
                </mxCell>
                <mxCell id="132" value="Price&lt;span style=&quot;white-space: pre;&quot;&gt; 320&lt;/span&gt;" style="text;strokeColor=none;fillColor=none;align=left;verticalAlign=top;spacingLeft=4;spacingRight=4;overflow=hidden;rotatable=1;points=[[0,0.5],[1,0.5]];portConstraint=eastwest;whiteSpace=wrap;html=1;labelBackgroundColor=none;fontColor=#FFFFFF;container=0;movable=1;resizable=1;deletable=1;editable=1;connectable=1;rounded=0;" parent="217" vertex="1">
                    <mxGeometry x="368.57142857142867" y="236.05163742690047" width="61.42857142857143" height="20.982456140350873" as="geometry"/>
                </mxCell>
                <mxCell id="146" value="Pos&amp;nbsp;&lt;span style=&quot;white-space: pre;&quot;&gt; &lt;span style=&quot;white-space: pre;&quot;&gt; 14&lt;/span&gt;&lt;/span&gt;" style="text;strokeColor=none;fillColor=none;align=left;verticalAlign=top;spacingLeft=4;spacingRight=4;overflow=hidden;rotatable=1;points=[[0,0.5],[1,0.5]];portConstraint=eastwest;whiteSpace=wrap;html=1;labelBackgroundColor=none;fontColor=#FFFFFF;container=0;movable=1;resizable=1;deletable=1;editable=1;connectable=1;rounded=0;" parent="217" vertex="1">
                    <mxGeometry x="61.428571428571445" y="26" width="61.42857142857143" height="20.982456140350873" as="geometry"/>
                </mxCell>
                <mxCell id="147" value="Rent&lt;span style=&quot;white-space: pre;&quot;&gt; 110&lt;/span&gt;" style="text;strokeColor=none;fillColor=none;align=left;verticalAlign=top;spacingLeft=4;spacingRight=4;overflow=hidden;rotatable=1;points=[[0,0.5],[1,0.5]];portConstraint=eastwest;whiteSpace=wrap;html=1;labelBackgroundColor=none;fontColor=#FFFFFF;container=0;movable=1;resizable=1;deletable=1;editable=1;connectable=1;rounded=0;" parent="217" vertex="1">
                    <mxGeometry x="61.428571428571445" y="46.982456140350905" width="61.42857142857143" height="20.982456140350873" as="geometry"/>
                </mxCell>
                <mxCell id="148" value="Price&lt;span style=&quot;white-space: pre;&quot;&gt; 220&lt;/span&gt;" style="text;strokeColor=none;fillColor=none;align=left;verticalAlign=top;spacingLeft=4;spacingRight=4;overflow=hidden;rotatable=1;points=[[0,0.5],[1,0.5]];portConstraint=eastwest;whiteSpace=wrap;html=1;labelBackgroundColor=none;fontColor=#FFFFFF;container=0;movable=1;resizable=1;deletable=1;editable=1;connectable=1;rounded=0;" parent="217" vertex="1">
                    <mxGeometry x="61.428571428571445" y="67.96491228070175" width="61.42857142857143" height="20.982456140350873" as="geometry"/>
                </mxCell>
                <mxCell id="150" value="Pos&amp;nbsp;&lt;span style=&quot;white-space: pre;&quot;&gt; &lt;span style=&quot;white-space: pre;&quot;&gt; 15&lt;/span&gt;&lt;/span&gt;" style="text;strokeColor=none;fillColor=none;align=left;verticalAlign=top;spacingLeft=4;spacingRight=4;overflow=hidden;rotatable=1;points=[[0,0.5],[1,0.5]];portConstraint=eastwest;whiteSpace=wrap;html=1;labelBackgroundColor=none;fontColor=#FFFFFF;container=0;movable=1;resizable=1;deletable=1;editable=1;connectable=1;rounded=0;" parent="217" vertex="1">
                    <mxGeometry x="122.85714285714289" y="26" width="61.42857142857143" height="20.982456140350873" as="geometry"/>
                </mxCell>
                <mxCell id="151" value="Rent&lt;span style=&quot;white-space: pre;&quot;&gt; 120&lt;/span&gt;" style="text;strokeColor=none;fillColor=none;align=left;verticalAlign=top;spacingLeft=4;spacingRight=4;overflow=hidden;rotatable=1;points=[[0,0.5],[1,0.5]];portConstraint=eastwest;whiteSpace=wrap;html=1;labelBackgroundColor=none;fontColor=#FFFFFF;container=0;movable=1;resizable=1;deletable=1;editable=1;connectable=1;rounded=0;" parent="217" vertex="1">
                    <mxGeometry x="122.85714285714289" y="46.982456140350905" width="61.42857142857143" height="20.982456140350873" as="geometry"/>
                </mxCell>
                <mxCell id="152" value="Price&lt;span style=&quot;white-space: pre;&quot;&gt; 240&lt;/span&gt;" style="text;strokeColor=none;fillColor=none;align=left;verticalAlign=top;spacingLeft=4;spacingRight=4;overflow=hidden;rotatable=1;points=[[0,0.5],[1,0.5]];portConstraint=eastwest;whiteSpace=wrap;html=1;labelBackgroundColor=none;fontColor=#FFFFFF;container=0;movable=1;resizable=1;deletable=1;editable=1;connectable=1;rounded=0;" parent="217" vertex="1">
                    <mxGeometry x="122.85714285714289" y="67.96491228070175" width="61.42857142857143" height="20.982456140350873" as="geometry"/>
                </mxCell>
                <mxCell id="154" value="Pos&amp;nbsp;&lt;span style=&quot;white-space: pre;&quot;&gt; &lt;span style=&quot;white-space: pre;&quot;&gt; 20&lt;/span&gt;&lt;/span&gt;" style="text;strokeColor=none;fillColor=none;align=left;verticalAlign=top;spacingLeft=4;spacingRight=4;overflow=hidden;rotatable=1;points=[[0,0.5],[1,0.5]];portConstraint=eastwest;whiteSpace=wrap;html=1;labelBackgroundColor=none;fontColor=#FFFFFF;container=0;movable=1;resizable=1;deletable=1;editable=1;connectable=1;rounded=0;" parent="217" vertex="1">
                    <mxGeometry x="368.57142857142867" y="108.4083625730994" width="61.42857142857143" height="20.982456140350873" as="geometry"/>
                </mxCell>
                <mxCell id="155" value="Rent&lt;span style=&quot;white-space: pre;&quot;&gt; 150&lt;/span&gt;" style="text;strokeColor=none;fillColor=none;align=left;verticalAlign=top;spacingLeft=4;spacingRight=4;overflow=hidden;rotatable=1;points=[[0,0.5],[1,0.5]];portConstraint=eastwest;whiteSpace=wrap;html=1;labelBackgroundColor=none;fontColor=#FFFFFF;container=0;movable=1;resizable=1;deletable=1;editable=1;connectable=1;rounded=0;" parent="217" vertex="1">
                    <mxGeometry x="368.57142857142867" y="129.39081871345024" width="61.42857142857143" height="20.982456140350873" as="geometry"/>
                </mxCell>
                <mxCell id="156" value="Price&lt;span style=&quot;white-space: pre;&quot;&gt; 300&lt;/span&gt;" style="text;strokeColor=none;fillColor=none;align=left;verticalAlign=top;spacingLeft=4;spacingRight=4;overflow=hidden;rotatable=1;points=[[0,0.5],[1,0.5]];portConstraint=eastwest;whiteSpace=wrap;html=1;labelBackgroundColor=none;fontColor=#FFFFFF;container=0;movable=1;resizable=1;deletable=1;editable=1;connectable=1;rounded=0;" parent="217" vertex="1">
                    <mxGeometry x="368.57142857142867" y="150.37327485380115" width="61.42857142857143" height="20.982456140350873" as="geometry"/>
                </mxCell>
                <mxCell id="158" value="Pos&amp;nbsp;&lt;span style=&quot;white-space: pre;&quot;&gt; &lt;span style=&quot;white-space: pre;&quot;&gt; 17&lt;/span&gt;&lt;/span&gt;" style="text;strokeColor=none;fillColor=none;align=left;verticalAlign=top;spacingLeft=4;spacingRight=4;overflow=hidden;rotatable=1;points=[[0,0.5],[1,0.5]];portConstraint=eastwest;whiteSpace=wrap;html=1;labelBackgroundColor=none;fontColor=#FFFFFF;container=0;movable=1;resizable=1;deletable=1;editable=1;connectable=1;rounded=0;" parent="217" vertex="1">
                    <mxGeometry x="245.71428571428578" y="26" width="61.42857142857143" height="20.982456140350873" as="geometry"/>
                </mxCell>
                <mxCell id="159" value="Rent&lt;span style=&quot;white-space: pre;&quot;&gt; 130&lt;br/&gt;&lt;br/&gt;&lt;/span&gt;" style="text;strokeColor=none;fillColor=none;align=left;verticalAlign=top;spacingLeft=4;spacingRight=4;overflow=hidden;rotatable=1;points=[[0,0.5],[1,0.5]];portConstraint=eastwest;whiteSpace=wrap;html=1;labelBackgroundColor=none;fontColor=#FFFFFF;container=0;movable=1;resizable=1;deletable=1;editable=1;connectable=1;rounded=0;" parent="217" vertex="1">
                    <mxGeometry x="245.71428571428578" y="46.982456140350905" width="61.42857142857143" height="20.982456140350873" as="geometry"/>
                </mxCell>
                <mxCell id="160" value="Price&lt;span style=&quot;white-space: pre;&quot;&gt; 260&lt;/span&gt;" style="text;strokeColor=none;fillColor=none;align=left;verticalAlign=top;spacingLeft=4;spacingRight=4;overflow=hidden;rotatable=1;points=[[0,0.5],[1,0.5]];portConstraint=eastwest;whiteSpace=wrap;html=1;labelBackgroundColor=none;fontColor=#FFFFFF;container=0;movable=1;resizable=1;deletable=1;editable=1;connectable=1;rounded=0;" parent="217" vertex="1">
                    <mxGeometry x="245.71428571428578" y="67.96491228070175" width="61.42857142857143" height="20.982456140350873" as="geometry"/>
                </mxCell>
                <mxCell id="162" value="Pos&amp;nbsp;&lt;span style=&quot;white-space: pre;&quot;&gt; &lt;span style=&quot;white-space: pre;&quot;&gt; 18&lt;/span&gt;&lt;/span&gt;" style="text;strokeColor=none;fillColor=none;align=left;verticalAlign=top;spacingLeft=4;spacingRight=4;overflow=hidden;rotatable=1;points=[[0,0.5],[1,0.5]];portConstraint=eastwest;whiteSpace=wrap;html=1;labelBackgroundColor=none;fontColor=#FFFFFF;container=0;movable=1;resizable=1;deletable=1;editable=1;connectable=1;rounded=0;" parent="217" vertex="1">
                    <mxGeometry x="307.1428571428571" y="26" width="61.42857142857143" height="20.982456140350873" as="geometry"/>
                </mxCell>
                <mxCell id="163" value="Rent&lt;span style=&quot;white-space: pre;&quot;&gt; 140&lt;/span&gt;" style="text;strokeColor=none;fillColor=none;align=left;verticalAlign=top;spacingLeft=4;spacingRight=4;overflow=hidden;rotatable=1;points=[[0,0.5],[1,0.5]];portConstraint=eastwest;whiteSpace=wrap;html=1;labelBackgroundColor=none;fontColor=#FFFFFF;container=0;movable=1;resizable=1;deletable=1;editable=1;connectable=1;rounded=0;" parent="217" vertex="1">
                    <mxGeometry x="307.1428571428571" y="46.982456140350905" width="61.42857142857143" height="20.982456140350873" as="geometry"/>
                </mxCell>
                <mxCell id="164" value="Price&lt;span style=&quot;white-space: pre;&quot;&gt; 280&lt;/span&gt;" style="text;strokeColor=none;fillColor=none;align=left;verticalAlign=top;spacingLeft=4;spacingRight=4;overflow=hidden;rotatable=1;points=[[0,0.5],[1,0.5]];portConstraint=eastwest;whiteSpace=wrap;html=1;labelBackgroundColor=none;fontColor=#FFFFFF;container=0;movable=1;resizable=1;deletable=1;editable=1;connectable=1;rounded=0;" parent="217" vertex="1">
                    <mxGeometry x="307.1428571428571" y="67.96491228070175" width="61.42857142857143" height="20.982456140350873" as="geometry"/>
                </mxCell>
                <mxCell id="166" value="Pos&amp;nbsp;&lt;span style=&quot;white-space: pre;&quot;&gt; &lt;span style=&quot;white-space: pre;&quot;&gt; 19&lt;/span&gt;&lt;/span&gt;" style="text;strokeColor=none;fillColor=none;align=left;verticalAlign=top;spacingLeft=4;spacingRight=4;overflow=hidden;rotatable=1;points=[[0,0.5],[1,0.5]];portConstraint=eastwest;whiteSpace=wrap;html=1;labelBackgroundColor=none;fontColor=#FFFFFF;container=0;movable=1;resizable=1;deletable=1;editable=1;connectable=1;rounded=0;" parent="217" vertex="1">
                    <mxGeometry x="368.57142857142867" y="26" width="61.42857142857143" height="20.982456140350873" as="geometry"/>
                </mxCell>
                <mxCell id="167" value="&amp;nbsp;" style="text;strokeColor=none;fillColor=none;align=left;verticalAlign=top;spacingLeft=4;spacingRight=4;overflow=hidden;rotatable=1;points=[[0,0.5],[1,0.5]];portConstraint=eastwest;whiteSpace=wrap;html=1;labelBackgroundColor=none;fontColor=#FFFFFF;container=0;movable=1;resizable=1;deletable=1;editable=1;connectable=1;rounded=0;" parent="217" vertex="1">
                    <mxGeometry x="368.57142857142867" y="46.982456140350905" width="61.42857142857143" height="20.982456140350873" as="geometry"/>
                </mxCell>
                <mxCell id="168" value="&amp;nbsp;" style="text;strokeColor=none;fillColor=none;align=left;verticalAlign=top;spacingLeft=4;spacingRight=4;overflow=hidden;rotatable=1;points=[[0,0.5],[1,0.5]];portConstraint=eastwest;whiteSpace=wrap;html=1;labelBackgroundColor=none;fontColor=#FFFFFF;container=0;movable=1;resizable=1;deletable=1;editable=1;connectable=1;rounded=0;" parent="217" vertex="1">
                    <mxGeometry x="368.57142857142867" y="67.96491228070175" width="61.42857142857143" height="20.982456140350873" as="geometry"/>
                </mxCell>
                <mxCell id="171" value="Pos&amp;nbsp;&lt;span style=&quot;white-space: pre;&quot;&gt; &lt;span style=&quot;white-space: pre;&quot;&gt; 16&lt;/span&gt;&lt;/span&gt;" style="text;strokeColor=none;fillColor=none;align=left;verticalAlign=top;spacingLeft=4;spacingRight=4;overflow=hidden;rotatable=1;points=[[0,0.5],[1,0.5]];portConstraint=eastwest;whiteSpace=wrap;html=1;labelBackgroundColor=none;fontColor=#FFFFFF;container=0;movable=1;resizable=1;deletable=1;editable=1;connectable=1;rounded=0;" parent="217" vertex="1">
                    <mxGeometry x="184.28571428571433" y="26" width="61.42857142857143" height="20.982456140350873" as="geometry"/>
                </mxCell>
                <mxCell id="172" value="Rent&lt;span style=&quot;white-space: pre;&quot;&gt; 100&lt;/span&gt;" style="text;strokeColor=none;fillColor=none;align=left;verticalAlign=top;spacingLeft=4;spacingRight=4;overflow=hidden;rotatable=1;points=[[0,0.5],[1,0.5]];portConstraint=eastwest;whiteSpace=wrap;html=1;labelBackgroundColor=none;fontColor=#FFFFFF;container=0;movable=1;resizable=1;deletable=1;editable=1;connectable=1;rounded=0;" parent="217" vertex="1">
                    <mxGeometry x="184.28571428571433" y="46.982456140350905" width="61.42857142857143" height="20.982456140350873" as="geometry"/>
                </mxCell>
                <mxCell id="173" value="&amp;nbsp;" style="text;strokeColor=none;fillColor=none;align=left;verticalAlign=top;spacingLeft=4;spacingRight=4;overflow=hidden;rotatable=1;points=[[0,0.5],[1,0.5]];portConstraint=eastwest;whiteSpace=wrap;html=1;labelBackgroundColor=none;fontColor=#FFFFFF;container=0;movable=1;resizable=1;deletable=1;editable=1;connectable=1;rounded=0;" parent="217" vertex="1">
                    <mxGeometry x="184.28571428571433" y="67.96491228070175" width="61.42857142857143" height="20.982456140350873" as="geometry"/>
                </mxCell>
                <mxCell id="175" value="Pos&amp;nbsp;&lt;span style=&quot;white-space: pre;&quot;&gt; &lt;span style=&quot;white-space: pre;&quot;&gt; 22&lt;/span&gt;&lt;/span&gt;" style="text;strokeColor=none;fillColor=none;align=left;verticalAlign=top;spacingLeft=4;spacingRight=4;overflow=hidden;rotatable=1;points=[[0,0.5],[1,0.5]];portConstraint=eastwest;whiteSpace=wrap;html=1;labelBackgroundColor=none;fontColor=#FFFFFF;container=0;movable=1;resizable=1;deletable=1;editable=1;connectable=1;rounded=0;" parent="217" vertex="1">
                    <mxGeometry x="368.57142857142867" y="279.7650877192982" width="61.42857142857143" height="20.982456140350873" as="geometry"/>
                </mxCell>
                <mxCell id="176" value="Rent&lt;span style=&quot;white-space: pre;&quot;&gt; 100&lt;/span&gt;" style="text;strokeColor=none;fillColor=none;align=left;verticalAlign=top;spacingLeft=4;spacingRight=4;overflow=hidden;rotatable=1;points=[[0,0.5],[1,0.5]];portConstraint=eastwest;whiteSpace=wrap;html=1;labelBackgroundColor=none;fontColor=#FFFFFF;container=0;movable=1;resizable=1;deletable=1;editable=1;connectable=1;rounded=0;" parent="217" vertex="1">
                    <mxGeometry x="368.57142857142867" y="300.7475438596491" width="61.42857142857143" height="20.982456140350873" as="geometry"/>
                </mxCell>
                <mxCell id="177" value="&amp;nbsp;" style="text;strokeColor=none;fillColor=none;align=left;verticalAlign=top;spacingLeft=4;spacingRight=4;overflow=hidden;rotatable=1;points=[[0,0.5],[1,0.5]];portConstraint=eastwest;whiteSpace=wrap;html=1;labelBackgroundColor=none;fontColor=#FFFFFF;container=0;movable=1;resizable=1;deletable=1;editable=1;connectable=1;rounded=0;" parent="217" vertex="1">
                    <mxGeometry x="368.57142857142867" y="321.73" width="61.42857142857143" height="20.982456140350873" as="geometry"/>
                </mxCell>
                <mxCell id="180" value="Pos&amp;nbsp;&lt;span style=&quot;white-space: pre;&quot;&gt; &lt;span style=&quot;white-space: pre;&quot;&gt; 23&lt;/span&gt;&lt;/span&gt;" style="text;strokeColor=none;fillColor=none;align=left;verticalAlign=top;spacingLeft=4;spacingRight=4;overflow=hidden;rotatable=1;points=[[0,0.5],[1,0.5]];portConstraint=eastwest;whiteSpace=wrap;html=1;labelBackgroundColor=none;fontColor=#FFFFFF;container=0;movable=1;resizable=1;deletable=1;editable=1;connectable=1;rounded=0;" parent="217" vertex="1">
                    <mxGeometry x="368.57142857142867" y="360.42345029239755" width="61.42857142857143" height="20.982456140350873" as="geometry"/>
                </mxCell>
                <mxCell id="181" value="Rent&lt;span style=&quot;white-space: pre;&quot;&gt; 180&lt;/span&gt;" style="text;strokeColor=none;fillColor=none;align=left;verticalAlign=top;spacingLeft=4;spacingRight=4;overflow=hidden;rotatable=1;points=[[0,0.5],[1,0.5]];portConstraint=eastwest;whiteSpace=wrap;html=1;labelBackgroundColor=none;fontColor=#FFFFFF;container=0;movable=1;resizable=1;deletable=1;editable=1;connectable=1;rounded=0;" parent="217" vertex="1">
                    <mxGeometry x="368.57142857142867" y="381.40590643274845" width="61.42857142857143" height="20.982456140350873" as="geometry"/>
                </mxCell>
                <mxCell id="182" value="Price&lt;span style=&quot;white-space: pre;&quot;&gt; 360&lt;/span&gt;" style="text;strokeColor=none;fillColor=none;align=left;verticalAlign=top;spacingLeft=4;spacingRight=4;overflow=hidden;rotatable=1;points=[[0,0.5],[1,0.5]];portConstraint=eastwest;whiteSpace=wrap;html=1;labelBackgroundColor=none;fontColor=#FFFFFF;container=0;movable=1;resizable=1;deletable=1;editable=1;connectable=1;rounded=0;" parent="217" vertex="1">
                    <mxGeometry x="368.57142857142867" y="402.38836257309936" width="61.42857142857143" height="20.982456140350873" as="geometry"/>
                </mxCell>
                <mxCell id="183" value="&lt;font color=&quot;#000000&quot;&gt;unowned&lt;/font&gt;" style="swimlane;fontStyle=0;childLayout=stackLayout;horizontal=1;startSize=26;horizontalStack=0;resizeParent=1;resizeParentMax=0;resizeLast=0;collapsible=1;marginBottom=0;html=1;labelBackgroundColor=none;align=center;verticalAlign=middle;fillColor=#0050ef;strokeColor=#001DBC;fontColor=#ffffff;container=0;movable=1;resizable=1;rotatable=1;deletable=1;editable=1;connectable=1;rounded=0;" parent="217" vertex="1">
                    <mxGeometry x="368.57142857142867" y="423.37081871345015" width="61.42857142857143" height="88.94736842105263" as="geometry"/>
                </mxCell>
                <mxCell id="184" value="Pos&amp;nbsp;&lt;span style=&quot;white-space: pre;&quot;&gt; &lt;span style=&quot;white-space: pre;&quot;&gt; 24&lt;/span&gt;&lt;/span&gt;" style="text;strokeColor=none;fillColor=none;align=left;verticalAlign=top;spacingLeft=4;spacingRight=4;overflow=hidden;rotatable=1;points=[[0,0.5],[1,0.5]];portConstraint=eastwest;whiteSpace=wrap;html=1;labelBackgroundColor=none;fontColor=#FFFFFF;container=0;movable=1;resizable=1;deletable=1;editable=1;connectable=1;rounded=0;" parent="217" vertex="1">
                    <mxGeometry x="368.57142857142867" y="449.37081871345015" width="61.42857142857143" height="20.982456140350873" as="geometry"/>
                </mxCell>
                <mxCell id="185" value="Rent&lt;span style=&quot;white-space: pre;&quot;&gt; 200&lt;/span&gt;" style="text;strokeColor=none;fillColor=none;align=left;verticalAlign=top;spacingLeft=4;spacingRight=4;overflow=hidden;rotatable=1;points=[[0,0.5],[1,0.5]];portConstraint=eastwest;whiteSpace=wrap;html=1;labelBackgroundColor=none;fontColor=#FFFFFF;container=0;movable=1;resizable=1;deletable=1;editable=1;connectable=1;rounded=0;" parent="217" vertex="1">
                    <mxGeometry x="368.57142857142867" y="470.35327485380105" width="61.42857142857143" height="20.982456140350873" as="geometry"/>
                </mxCell>
                <mxCell id="186" value="Price&lt;span style=&quot;white-space: pre;&quot;&gt; 400&lt;/span&gt;" style="text;strokeColor=none;fillColor=none;align=left;verticalAlign=top;spacingLeft=4;spacingRight=4;overflow=hidden;rotatable=1;points=[[0,0.5],[1,0.5]];portConstraint=eastwest;whiteSpace=wrap;html=1;labelBackgroundColor=none;fontColor=#FFFFFF;container=0;movable=1;resizable=1;deletable=1;editable=1;connectable=1;rounded=0;" parent="217" vertex="1">
                    <mxGeometry x="368.57142857142867" y="491.33573099415185" width="61.42857142857143" height="20.982456140350873" as="geometry"/>
                </mxCell>
                <mxCell id="203" value="" style="group;rounded=0;" parent="217" vertex="1" connectable="0">
                    <mxGeometry y="426.64228070175443" width="61.42857142857143" height="85.67836257309943" as="geometry"/>
                </mxCell>
                <mxCell id="122" value="Pos&amp;nbsp;&lt;span style=&quot;white-space: pre;&quot;&gt; &lt;span style=&quot;white-space: pre;&quot;&gt; 8&lt;/span&gt;&lt;/span&gt;" style="text;strokeColor=none;fillColor=none;align=left;verticalAlign=top;spacingLeft=4;spacingRight=4;overflow=hidden;rotatable=1;points=[[0,0.5],[1,0.5]];portConstraint=eastwest;whiteSpace=wrap;html=1;labelBackgroundColor=none;fontColor=#FFFFFF;container=0;movable=1;resizable=1;deletable=1;editable=1;connectable=1;rounded=0;" parent="203" vertex="1">
                    <mxGeometry y="20.087719298245588" width="60" height="23.63" as="geometry"/>
                </mxCell>
                <mxCell id="124" value="Price&lt;span style=&quot;white-space: pre;&quot;&gt; 140&lt;/span&gt;" style="text;strokeColor=none;fillColor=none;align=left;verticalAlign=top;spacingLeft=4;spacingRight=4;overflow=hidden;rotatable=1;points=[[0,0.5],[1,0.5]];portConstraint=eastwest;whiteSpace=wrap;html=1;labelBackgroundColor=none;fontColor=#FFFFFF;container=0;movable=1;resizable=1;deletable=1;editable=1;connectable=1;rounded=0;" parent="203" vertex="1">
                    <mxGeometry y="64.69590643274853" width="61.42857142857143" height="20.982456140350873" as="geometry"/>
                </mxCell>
                <mxCell id="128" value="&lt;div style=&quot;line-height: 100%;&quot;&gt;&amp;nbsp;unowned&lt;/div&gt;" style="text;strokeColor=#3700CC;fillColor=#6a00ff;align=center;verticalAlign=top;spacingLeft=4;spacingRight=4;overflow=hidden;rotatable=1;points=[[0,0.5],[1,0.5]];portConstraint=eastwest;whiteSpace=wrap;html=1;labelBackgroundColor=none;fontColor=#000000;container=0;movable=1;resizable=1;deletable=1;editable=1;connectable=1;rounded=0;" parent="203" vertex="1">
                    <mxGeometry width="61.42857142857143" height="20.982456140350873" as="geometry"/>
                </mxCell>
                <mxCell id="123" value="Rent&lt;span style=&quot;white-space: pre;&quot;&gt; 70&lt;/span&gt;" style="text;strokeColor=none;fillColor=none;align=left;verticalAlign=top;spacingLeft=4;spacingRight=4;overflow=hidden;rotatable=1;points=[[0,0.5],[1,0.5]];portConstraint=eastwest;whiteSpace=wrap;html=1;labelBackgroundColor=none;fontColor=#FFFFFF;container=0;movable=1;resizable=1;deletable=1;editable=1;connectable=1;rounded=0;" parent="203" vertex="1">
                    <mxGeometry y="43.713450292397624" width="61.42857142857143" height="20.982456140350873" as="geometry"/>
                </mxCell>
                <mxCell id="204" value="" style="group;rounded=0;" parent="217" vertex="1" connectable="0">
                    <mxGeometry x="61.428571428571445" y="512.3216374269006" width="61.428571428571445" height="88.9473684210526" as="geometry"/>
                </mxCell>
                <mxCell id="113" value="&lt;font color=&quot;#000000&quot;&gt;unowned&lt;/font&gt;" style="swimlane;fontStyle=0;childLayout=stackLayout;horizontal=1;startSize=26;horizontalStack=0;resizeParent=1;resizeParentMax=0;resizeLast=0;collapsible=1;marginBottom=0;html=1;labelBackgroundColor=none;align=center;verticalAlign=middle;fillColor=#1ba1e2;strokeColor=#006EAF;fontColor=#ffffff;container=0;movable=1;resizable=1;rotatable=1;deletable=1;editable=1;connectable=1;rounded=0;" parent="204" vertex="1">
                    <mxGeometry width="61.42857142857143" height="88.94736842105263" as="geometry">
                        <mxRectangle x="71.42857142857144" y="612.3216374269006" width="90" height="30" as="alternateBounds"/>
                    </mxGeometry>
                </mxCell>
                <mxCell id="114" value="Pos&amp;nbsp;&lt;span style=&quot;white-space: pre;&quot;&gt; &lt;span style=&quot;white-space: pre;&quot;&gt; 6&lt;/span&gt;&lt;/span&gt;" style="text;strokeColor=none;fillColor=none;align=left;verticalAlign=top;spacingLeft=4;spacingRight=4;overflow=hidden;rotatable=1;points=[[0,0.5],[1,0.5]];portConstraint=eastwest;whiteSpace=wrap;html=1;labelBackgroundColor=none;fontColor=#FFFFFF;container=0;movable=1;resizable=1;deletable=1;editable=1;connectable=1;rounded=0;" parent="204" vertex="1">
                    <mxGeometry y="26" width="61.42857142857143" height="20.982456140350873" as="geometry"/>
                </mxCell>
                <mxCell id="115" value="Rent&lt;span style=&quot;white-space: pre;&quot;&gt; 60&lt;/span&gt;" style="text;strokeColor=none;fillColor=none;align=left;verticalAlign=top;spacingLeft=4;spacingRight=4;overflow=hidden;rotatable=1;points=[[0,0.5],[1,0.5]];portConstraint=eastwest;whiteSpace=wrap;html=1;labelBackgroundColor=none;fontColor=#FFFFFF;container=0;movable=1;resizable=1;deletable=1;editable=1;connectable=1;rounded=0;" parent="204" vertex="1">
                    <mxGeometry y="46.982456140350905" width="61.42857142857143" height="20.982456140350873" as="geometry"/>
                </mxCell>
                <mxCell id="116" value="Price&lt;span style=&quot;white-space: pre;&quot;&gt; 120&lt;/span&gt;" style="text;strokeColor=none;fillColor=none;align=left;verticalAlign=top;spacingLeft=4;spacingRight=4;overflow=hidden;rotatable=1;points=[[0,0.5],[1,0.5]];portConstraint=eastwest;whiteSpace=wrap;html=1;labelBackgroundColor=none;fontColor=#FFFFFF;container=0;movable=1;resizable=1;deletable=1;editable=1;connectable=1;rounded=0;" parent="204" vertex="1">
                    <mxGeometry y="67.9649122807017" width="61.42857142857143" height="20.982456140350873" as="geometry"/>
                </mxCell>
                <mxCell id="205" value="" style="group;rounded=0;" parent="217" vertex="1" connectable="0">
                    <mxGeometry x="122.85714285714289" y="512.3216374269006" width="61.428571428571445" height="88.9473684210526" as="geometry"/>
                </mxCell>
                <mxCell id="109" value="&lt;font color=&quot;#000000&quot;&gt;unowned&lt;/font&gt;" style="swimlane;fontStyle=0;childLayout=stackLayout;horizontal=1;startSize=26;horizontalStack=0;resizeParent=1;resizeParentMax=0;resizeLast=0;collapsible=1;marginBottom=0;html=1;labelBackgroundColor=none;align=center;verticalAlign=middle;fillColor=#1ba1e2;strokeColor=#006EAF;fontColor=#ffffff;container=0;movable=1;resizable=1;rotatable=1;deletable=1;editable=1;connectable=1;rounded=0;" parent="205" vertex="1">
                    <mxGeometry width="61.42857142857143" height="88.94736842105263" as="geometry"/>
                </mxCell>
                <mxCell id="110" value="Pos&amp;nbsp;&lt;span style=&quot;white-space: pre;&quot;&gt; &lt;span style=&quot;white-space: pre;&quot;&gt; 5&lt;/span&gt;&lt;/span&gt;" style="text;strokeColor=none;fillColor=none;align=left;verticalAlign=top;spacingLeft=4;spacingRight=4;overflow=hidden;rotatable=1;points=[[0,0.5],[1,0.5]];portConstraint=eastwest;whiteSpace=wrap;html=1;labelBackgroundColor=none;fontColor=#FFFFFF;container=0;movable=1;resizable=1;deletable=1;editable=1;connectable=1;rounded=0;" parent="205" vertex="1">
                    <mxGeometry y="26" width="61.42857142857143" height="20.982456140350873" as="geometry"/>
                </mxCell>
                <mxCell id="111" value="Rent&lt;span style=&quot;white-space: pre;&quot;&gt; 50&lt;/span&gt;" style="text;strokeColor=none;fillColor=none;align=left;verticalAlign=top;spacingLeft=4;spacingRight=4;overflow=hidden;rotatable=1;points=[[0,0.5],[1,0.5]];portConstraint=eastwest;whiteSpace=wrap;html=1;labelBackgroundColor=none;fontColor=#FFFFFF;container=0;movable=1;resizable=1;deletable=1;editable=1;connectable=1;rounded=0;" parent="205" vertex="1">
                    <mxGeometry y="46.982456140350905" width="61.42857142857143" height="20.982456140350873" as="geometry"/>
                </mxCell>
                <mxCell id="112" value="Price&lt;span style=&quot;white-space: pre;&quot;&gt; 100&lt;/span&gt;" style="text;strokeColor=none;fillColor=none;align=left;verticalAlign=top;spacingLeft=4;spacingRight=4;overflow=hidden;rotatable=1;points=[[0,0.5],[1,0.5]];portConstraint=eastwest;whiteSpace=wrap;html=1;labelBackgroundColor=none;fontColor=#FFFFFF;container=0;movable=1;resizable=1;deletable=1;editable=1;connectable=1;rounded=0;" parent="205" vertex="1">
                    <mxGeometry y="67.9649122807017" width="61.42857142857143" height="20.982456140350873" as="geometry"/>
                </mxCell>
                <mxCell id="206" value="" style="group;rounded=0;" parent="217" vertex="1" connectable="0">
                    <mxGeometry x="184.28571428571433" y="512.3216374269006" width="61.428571428571445" height="88.9473684210526" as="geometry"/>
                </mxCell>
                <mxCell id="187" value="&lt;font color=&quot;#000000&quot; style=&quot;font-size: 10px;&quot;&gt;&amp;nbsp;Player Home&lt;/font&gt;" style="swimlane;fontStyle=0;childLayout=stackLayout;horizontal=1;startSize=26;horizontalStack=0;resizeParent=1;resizeParentMax=0;resizeLast=0;collapsible=1;marginBottom=0;html=1;labelBackgroundColor=none;align=center;verticalAlign=middle;fontColor=#ffffff;fillColor=#647687;strokeColor=#314354;container=0;movable=1;resizable=1;rotatable=1;deletable=1;editable=1;connectable=1;rounded=0;" parent="206" vertex="1">
                    <mxGeometry width="61.42857142857143" height="88.94736842105263" as="geometry"/>
                </mxCell>
                <mxCell id="188" value="Pos&amp;nbsp;&lt;span style=&quot;white-space: pre;&quot;&gt; &lt;span style=&quot;white-space: pre;&quot;&gt; 10&lt;/span&gt;&lt;/span&gt;" style="text;strokeColor=none;fillColor=none;align=left;verticalAlign=top;spacingLeft=4;spacingRight=4;overflow=hidden;rotatable=1;points=[[0,0.5],[1,0.5]];portConstraint=eastwest;whiteSpace=wrap;html=1;labelBackgroundColor=none;fontColor=#FFFFFF;container=0;movable=1;resizable=1;deletable=1;editable=1;connectable=1;rounded=0;" parent="206" vertex="1">
                    <mxGeometry y="26" width="61.42857142857143" height="20.982456140350873" as="geometry"/>
                </mxCell>
                <mxCell id="189" value="Rent&lt;span style=&quot;white-space: pre;&quot;&gt; 100&lt;/span&gt;" style="text;strokeColor=none;fillColor=none;align=left;verticalAlign=top;spacingLeft=4;spacingRight=4;overflow=hidden;rotatable=1;points=[[0,0.5],[1,0.5]];portConstraint=eastwest;whiteSpace=wrap;html=1;labelBackgroundColor=none;fontColor=#FFFFFF;container=0;movable=1;resizable=1;deletable=1;editable=1;connectable=1;rounded=0;" parent="206" vertex="1">
                    <mxGeometry y="46.982456140350905" width="61.42857142857143" height="20.982456140350873" as="geometry"/>
                </mxCell>
                <mxCell id="190" value="&amp;nbsp;" style="text;strokeColor=none;fillColor=none;align=left;verticalAlign=top;spacingLeft=4;spacingRight=4;overflow=hidden;rotatable=1;points=[[0,0.5],[1,0.5]];portConstraint=eastwest;whiteSpace=wrap;html=1;labelBackgroundColor=none;fontColor=#FFFFFF;container=0;movable=1;resizable=1;deletable=1;editable=1;connectable=1;rounded=0;" parent="206" vertex="1">
                    <mxGeometry y="67.9649122807017" width="61.42857142857143" height="20.982456140350873" as="geometry"/>
                </mxCell>
                <mxCell id="207" value="" style="group;rounded=0;" parent="217" vertex="1" connectable="0">
                    <mxGeometry x="245.71428571428578" y="512.3216374269006" width="61.428571428571445" height="88.9473684210526" as="geometry"/>
                </mxCell>
                <mxCell id="99" value="&lt;font color=&quot;#000000&quot;&gt;unowned&lt;/font&gt;" style="swimlane;fontStyle=0;childLayout=stackLayout;horizontal=1;startSize=26;horizontalStack=0;resizeParent=1;resizeParentMax=0;resizeLast=0;collapsible=1;marginBottom=0;html=1;labelBackgroundColor=none;align=center;verticalAlign=middle;fillColor=#d80073;strokeColor=#A50040;fontColor=#ffffff;container=0;movable=1;resizable=1;rotatable=1;deletable=1;editable=1;connectable=1;rounded=0;" parent="207" vertex="1">
                    <mxGeometry width="61.42857142857143" height="88.94736842105263" as="geometry"/>
                </mxCell>
                <mxCell id="101" value="Rent&lt;span style=&quot;white-space: pre;&quot;&gt; 40&lt;/span&gt;" style="text;strokeColor=none;fillColor=none;align=left;verticalAlign=top;spacingLeft=4;spacingRight=4;overflow=hidden;rotatable=1;points=[[0,0.5],[1,0.5]];portConstraint=eastwest;whiteSpace=wrap;html=1;labelBackgroundColor=none;fontColor=#FFFFFF;container=0;movable=1;resizable=1;deletable=1;editable=1;connectable=1;rounded=0;" parent="207" vertex="1">
                    <mxGeometry y="46.982456140350905" width="61.42857142857143" height="20.982456140350873" as="geometry"/>
                </mxCell>
                <mxCell id="102" value="Price&lt;span style=&quot;white-space: pre;&quot;&gt; &lt;/span&gt;80" style="text;strokeColor=none;fillColor=none;align=left;verticalAlign=top;spacingLeft=4;spacingRight=4;overflow=hidden;rotatable=1;points=[[0,0.5],[1,0.5]];portConstraint=eastwest;whiteSpace=wrap;html=1;labelBackgroundColor=none;fontColor=#FFFFFF;container=0;movable=1;resizable=1;deletable=1;editable=1;connectable=1;rounded=0;" parent="207" vertex="1">
                    <mxGeometry y="67.9649122807017" width="61.42857142857143" height="20.982456140350873" as="geometry"/>
                </mxCell>
                <mxCell id="208" value="" style="group;rounded=0;" parent="217" vertex="1" connectable="0">
                    <mxGeometry x="307.1428571428571" y="512.3216374269006" width="61.428571428571445" height="88.9473684210526" as="geometry"/>
                </mxCell>
                <mxCell id="94" value="&lt;font color=&quot;#050505&quot;&gt;unowned&lt;/font&gt;" style="swimlane;fontStyle=0;childLayout=stackLayout;horizontal=1;startSize=26;horizontalStack=0;resizeParent=1;resizeParentMax=0;resizeLast=0;collapsible=1;marginBottom=0;html=1;labelBackgroundColor=none;align=center;verticalAlign=middle;fillColor=#d80073;strokeColor=#A50040;fontColor=#ffffff;container=0;movable=1;resizable=1;rotatable=1;deletable=1;editable=1;connectable=1;rounded=0;" parent="208" vertex="1">
                    <mxGeometry width="61.42857142857143" height="88.94736842105263" as="geometry"/>
                </mxCell>
                <mxCell id="96" value="Rent&lt;span style=&quot;white-space: pre;&quot;&gt; &lt;/span&gt;30" style="text;strokeColor=none;fillColor=none;align=left;verticalAlign=top;spacingLeft=4;spacingRight=4;overflow=hidden;rotatable=1;points=[[0,0.5],[1,0.5]];portConstraint=eastwest;whiteSpace=wrap;html=1;labelBackgroundColor=none;fontColor=#FFFFFF;container=0;movable=1;resizable=1;deletable=1;editable=1;connectable=1;rounded=0;" parent="208" vertex="1">
                    <mxGeometry y="46.982456140350905" width="61.42857142857143" height="20.982456140350873" as="geometry"/>
                </mxCell>
                <mxCell id="97" value="Price&lt;span style=&quot;white-space: pre;&quot;&gt; &lt;/span&gt;60" style="text;strokeColor=none;fillColor=none;align=left;verticalAlign=top;spacingLeft=4;spacingRight=4;overflow=hidden;rotatable=1;points=[[0,0.5],[1,0.5]];portConstraint=eastwest;whiteSpace=wrap;html=1;labelBackgroundColor=none;fontColor=#FFFFFF;container=0;movable=1;resizable=1;deletable=1;editable=1;connectable=1;rounded=0;" parent="208" vertex="1">
                    <mxGeometry y="67.9649122807017" width="61.42857142857143" height="20.982456140350873" as="geometry"/>
                </mxCell>
                <mxCell id="361" value="" style="image;html=1;image=img/lib/clip_art/people/Construction_Worker_Man_Black_128x128.png;labelBackgroundColor=#FF9933;fontSize=14;fontColor=#000000;strokeWidth=3;imageBorder=default;" parent="217" vertex="1">
                    <mxGeometry x="216" y="98" width="152.57" height="145" as="geometry"/>
                </mxCell>
                <mxCell id="362" value="" style="image;html=1;image=img/lib/clip_art/people/Security_Woman_128x128.png;labelBackgroundColor=#FF9933;fontSize=14;fontColor=#000000;imageBorder=default;strokeWidth=3;" parent="217" vertex="1">
                    <mxGeometry x="217" y="351" width="153.57" height="163.73" as="geometry"/>
                </mxCell>
                <mxCell id="363" value="" style="image;html=1;image=img/lib/clip_art/people/Suit_Woman_Green_128x128.png;labelBackgroundColor=#FF9933;fontSize=14;fontColor=#000000;imageBorder=default;strokeWidth=3;" parent="217" vertex="1">
                    <mxGeometry x="61.43" y="98" width="151.57" height="144" as="geometry"/>
                </mxCell>
                <mxCell id="364" value="" style="image;html=1;image=img/lib/clip_art/people/Pilot_Man_128x128.png;labelBackgroundColor=#FF9933;fontSize=14;fontColor=#000000;strokeWidth=3;imageBorder=default;" parent="217" vertex="1">
                    <mxGeometry x="60.57" y="350" width="153.43" height="162.32" as="geometry"/>
                </mxCell>
                <mxCell id="367" value="" style="html=1;whiteSpace=wrap;shape=isoCube2;backgroundOutline=1;isoAngle=15;labelBackgroundColor=#FF9933;strokeWidth=3;fontSize=14;fontColor=#000000;rotation=-15;" parent="217" vertex="1">
                    <mxGeometry x="84" y="262.26" width="66" height="71.96" as="geometry"/>
                </mxCell>
                <mxCell id="477" value="" style="html=1;whiteSpace=wrap;shape=isoCube2;backgroundOutline=1;isoAngle=15;labelBackgroundColor=#FF9933;strokeWidth=3;fontSize=14;fontColor=#000000;rotation=15;" parent="217" vertex="1">
                    <mxGeometry x="136" y="269" width="66" height="71.96" as="geometry"/>
                </mxCell>
                <mxCell id="354" value="" style="group;" parent="1" vertex="1" connectable="0">
                    <mxGeometry x="27" y="736" width="945" height="434" as="geometry"/>
                </mxCell>
                <mxCell id="3" value="&lt;font style=&quot;&quot; color=&quot;#ffffff&quot;&gt;Main Menu&lt;/font&gt;" style="swimlane;fontStyle=0;childLayout=stackLayout;horizontal=1;startSize=26;fillColor=none;horizontalStack=0;resizeParent=1;resizeParentMax=0;resizeLast=0;collapsible=1;marginBottom=0;html=1;rounded=0;" parent="354" vertex="1">
                    <mxGeometry x="30" y="5" width="137" height="78" as="geometry">
                        <mxRectangle x="1122" y="62" width="100" height="30" as="alternateBounds"/>
                    </mxGeometry>
                </mxCell>
                <mxCell id="4" value="1&amp;nbsp; Start New Game" style="text;strokeColor=none;fillColor=none;align=left;verticalAlign=top;spacingLeft=4;spacingRight=4;overflow=hidden;rotatable=0;points=[[0,0.5],[1,0.5]];portConstraint=eastwest;whiteSpace=wrap;html=1;rounded=0;" parent="3" vertex="1">
                    <mxGeometry y="26" width="137" height="26" as="geometry"/>
                </mxCell>
                <mxCell id="6" value="3&amp;nbsp; Exit" style="text;strokeColor=none;fillColor=none;align=left;verticalAlign=top;spacingLeft=4;spacingRight=4;overflow=hidden;rotatable=0;points=[[0,0.5],[1,0.5]];portConstraint=eastwest;whiteSpace=wrap;html=1;rounded=0;" parent="3" vertex="1">
                    <mxGeometry y="52" width="137" height="26" as="geometry"/>
                </mxCell>
                <mxCell id="33" value="&lt;font color=&quot;#ffffff&quot;&gt;Player Setup&lt;/font&gt;" style="swimlane;fontStyle=0;childLayout=stackLayout;horizontal=1;startSize=26;fillColor=none;horizontalStack=0;resizeParent=1;resizeParentMax=0;resizeLast=0;collapsible=1;marginBottom=0;html=1;rounded=0;" parent="354" vertex="1">
                    <mxGeometry x="414" y="55" width="139" height="208" as="geometry">
                        <mxRectangle x="1529" y="99" width="110" height="30" as="alternateBounds"/>
                    </mxGeometry>
                </mxCell>
                <mxCell id="34" value="1 Add Player" style="text;strokeColor=none;fillColor=none;align=left;verticalAlign=top;spacingLeft=4;spacingRight=4;overflow=hidden;rotatable=0;points=[[0,0.5],[1,0.5]];portConstraint=eastwest;whiteSpace=wrap;html=1;rounded=0;" parent="33" vertex="1">
                    <mxGeometry y="26" width="139" height="26" as="geometry"/>
                </mxCell>
                <mxCell id="35" value="2 See All Players" style="text;strokeColor=none;fillColor=none;align=left;verticalAlign=top;spacingLeft=4;spacingRight=4;overflow=hidden;rotatable=0;points=[[0,0.5],[1,0.5]];portConstraint=eastwest;whiteSpace=wrap;html=1;rounded=0;" parent="33" vertex="1">
                    <mxGeometry y="52" width="139" height="26" as="geometry"/>
                </mxCell>
                <mxCell id="36" value="3 Remove Player" style="text;strokeColor=none;fillColor=none;align=left;verticalAlign=top;spacingLeft=4;spacingRight=4;overflow=hidden;rotatable=0;points=[[0,0.5],[1,0.5]];portConstraint=eastwest;whiteSpace=wrap;html=1;rounded=0;" parent="33" vertex="1">
                    <mxGeometry y="78" width="139" height="26" as="geometry"/>
                </mxCell>
                <mxCell id="231" value="4 Edit Player" style="text;strokeColor=none;fillColor=none;align=left;verticalAlign=top;spacingLeft=4;spacingRight=4;overflow=hidden;rotatable=0;points=[[0,0.5],[1,0.5]];portConstraint=eastwest;whiteSpace=wrap;html=1;rounded=0;" parent="33" vertex="1">
                    <mxGeometry y="104" width="139" height="26" as="geometry"/>
                </mxCell>
                <mxCell id="264" value="5 Start Game" style="text;strokeColor=none;fillColor=none;align=left;verticalAlign=top;spacingLeft=4;spacingRight=4;overflow=hidden;rotatable=0;points=[[0,0.5],[1,0.5]];portConstraint=eastwest;whiteSpace=wrap;html=1;rounded=0;" parent="33" vertex="1">
                    <mxGeometry y="130" width="139" height="26" as="geometry"/>
                </mxCell>
                <mxCell id="303" value="6 Change Win Amount" style="text;strokeColor=none;fillColor=none;align=left;verticalAlign=top;spacingLeft=4;spacingRight=4;overflow=hidden;rotatable=0;points=[[0,0.5],[1,0.5]];portConstraint=eastwest;whiteSpace=wrap;html=1;rounded=0;" parent="33" vertex="1">
                    <mxGeometry y="156" width="139" height="26" as="geometry"/>
                </mxCell>
                <mxCell id="484" value="7 Quit Game" style="text;strokeColor=none;fillColor=none;align=left;verticalAlign=top;spacingLeft=4;spacingRight=4;overflow=hidden;rotatable=0;points=[[0,0.5],[1,0.5]];portConstraint=eastwest;whiteSpace=wrap;html=1;rounded=0;" parent="33" vertex="1">
                    <mxGeometry y="182" width="139" height="26" as="geometry"/>
                </mxCell>
                <mxCell id="229" value="Select Player to Remove" style="rounded=1;arcSize=9;fillColor=#F7F8F9;align=left;spacingLeft=5;strokeColor=#DEE1E6;html=1;strokeWidth=2;fontColor=#596780;fontSize=12" parent="354" vertex="1">
                    <mxGeometry x="62" y="214" width="145" height="27" as="geometry"/>
                </mxCell>
                <mxCell id="230" value="Select Player to Edit" style="rounded=1;arcSize=9;fillColor=#F7F8F9;align=left;spacingLeft=5;strokeColor=#DEE1E6;html=1;strokeWidth=2;fontColor=#596780;fontSize=12" parent="354" vertex="1">
                    <mxGeometry x="235" y="216" width="128" height="27" as="geometry"/>
                </mxCell>
                <mxCell id="250" value="Players Name" style="rounded=1;arcSize=9;fillColor=#F7F8F9;align=left;spacingLeft=5;strokeColor=#DEE1E6;html=1;strokeWidth=2;fontColor=#596780;fontSize=12" parent="354" vertex="1">
                    <mxGeometry x="593" y="55" width="158" height="21" as="geometry"/>
                </mxCell>
                <mxCell id="252" style="edgeStyle=orthogonalEdgeStyle;html=1;exitX=1;exitY=0.5;exitDx=0;exitDy=0;entryX=0;entryY=0.5;entryDx=0;entryDy=0;fontColor=#000000;strokeWidth=2;fillColor=#b1ddf0;strokeColor=#10739e;" parent="354" source="34" target="250" edge="1">
                    <mxGeometry relative="1" as="geometry"/>
                </mxCell>
                <mxCell id="487" style="edgeStyle=orthogonalEdgeStyle;html=1;exitX=0;exitY=0.5;exitDx=0;exitDy=0;entryX=0;entryY=0.5;entryDx=0;entryDy=0;strokeWidth=2;fontSize=14;fontColor=#000000;strokeColor=#66B2FF;" parent="354" source="255" target="296" edge="1">
                    <mxGeometry relative="1" as="geometry"/>
                </mxCell>
                <mxCell id="255" value="Game player_type drop down" style="rounded=1;arcSize=9;fillColor=#F7F8F9;align=left;spacingLeft=5;strokeColor=#DEE1E6;html=1;strokeWidth=2;fontColor=#596780;fontSize=12" parent="354" vertex="1">
                    <mxGeometry x="585" y="98" width="158" height="21" as="geometry"/>
                </mxCell>
                <mxCell id="256" style="edgeStyle=orthogonalEdgeStyle;html=1;entryX=1;entryY=0.5;entryDx=0;entryDy=0;fontColor=#000000;exitX=1;exitY=0.5;exitDx=0;exitDy=0;strokeWidth=2;fillColor=#b1ddf0;strokeColor=#10739e;" parent="354" source="250" target="255" edge="1">
                    <mxGeometry relative="1" as="geometry">
                        <Array as="points">
                            <mxPoint x="777" y="62"/>
                            <mxPoint x="777" y="106"/>
                        </Array>
                    </mxGeometry>
                </mxCell>
                <mxCell id="293" style="edgeStyle=orthogonalEdgeStyle;html=1;entryX=0.75;entryY=0;entryDx=0;entryDy=0;strokeWidth=2;fontSize=14;fontColor=#000000;fillColor=#b1ddf0;strokeColor=#10739e;exitX=0;exitY=0.5;exitDx=0;exitDy=0;startArrow=none;" parent="354" source="317" target="33" edge="1">
                    <mxGeometry relative="1" as="geometry">
                        <Array as="points">
                            <mxPoint x="730" y="23"/>
                            <mxPoint x="512" y="23"/>
                        </Array>
                    </mxGeometry>
                </mxCell>
                <mxCell id="258" value="Your Home's Street Name" style="rounded=1;arcSize=9;fillColor=#F7F8F9;align=left;spacingLeft=5;strokeColor=#DEE1E6;html=1;strokeWidth=2;fontColor=#596780;fontSize=12" parent="354" vertex="1">
                    <mxGeometry x="767" y="130" width="158" height="25" as="geometry"/>
                </mxCell>
                <mxCell id="266" style="edgeStyle=orthogonalEdgeStyle;html=1;exitX=0.75;exitY=0;exitDx=0;exitDy=0;fontSize=14;fontColor=#000000;strokeWidth=2;fillColor=#6d8764;strokeColor=#3A5431;" parent="354" source="260" edge="1">
                    <mxGeometry relative="1" as="geometry">
                        <mxPoint x="416" y="58" as="targetPoint"/>
                        <Array as="points">
                            <mxPoint x="316" y="96"/>
                            <mxPoint x="362" y="96"/>
                            <mxPoint x="362" y="58"/>
                        </Array>
                    </mxGeometry>
                </mxCell>
                <mxCell id="268" style="edgeStyle=orthogonalEdgeStyle;html=1;entryX=0.75;entryY=0;entryDx=0;entryDy=0;fontSize=14;fontColor=#000000;fillColor=#e51400;strokeColor=#B20000;strokeWidth=2;exitX=0.181;exitY=1.013;exitDx=0;exitDy=0;exitPerimeter=0;" parent="354" source="260" target="229" edge="1">
                    <mxGeometry relative="1" as="geometry"/>
                </mxCell>
                <mxCell id="260" value="DISPLAY LIST OF PLAYERS" style="rounded=1;arcSize=9;fillColor=#f0a30a;align=center;spacingLeft=5;strokeColor=#BD7000;strokeWidth=2;fontColor=#000000;fontSize=12;labelBackgroundColor=#FF9933;" parent="354" vertex="1">
                    <mxGeometry x="192" y="133" width="166" height="27" as="geometry"/>
                </mxCell>
                <mxCell id="270" style="edgeStyle=orthogonalEdgeStyle;html=1;exitX=0.75;exitY=0;exitDx=0;exitDy=0;fontSize=14;fontColor=#000000;fillColor=#e51400;strokeColor=#B20000;strokeWidth=2;entryX=0.25;entryY=0;entryDx=0;entryDy=0;" parent="354" source="262" target="33" edge="1">
                    <mxGeometry relative="1" as="geometry">
                        <mxPoint x="366" y="78" as="targetPoint"/>
                        <Array as="points">
                            <mxPoint x="142" y="105"/>
                            <mxPoint x="228" y="105"/>
                            <mxPoint x="228" y="34"/>
                            <mxPoint x="446" y="34"/>
                        </Array>
                    </mxGeometry>
                </mxCell>
                <mxCell id="262" value="DELETE PLAYER" style="rounded=1;arcSize=9;fillColor=#f0a30a;align=left;spacingLeft=5;strokeColor=#BD7000;html=1;strokeWidth=2;fontColor=#000000;fontSize=12" parent="354" vertex="1">
                    <mxGeometry x="59" y="131" width="110" height="27" as="geometry"/>
                </mxCell>
                <mxCell id="267" style="edgeStyle=orthogonalEdgeStyle;html=1;entryX=1;entryY=0.5;entryDx=0;entryDy=0;fontSize=14;fontColor=#000000;fillColor=#e51400;strokeColor=#B20000;strokeWidth=2;" parent="354" source="36" target="260" edge="1">
                    <mxGeometry relative="1" as="geometry">
                        <Array as="points">
                            <mxPoint x="378" y="147"/>
                            <mxPoint x="378" y="147"/>
                        </Array>
                    </mxGeometry>
                </mxCell>
                <mxCell id="273" style="edgeStyle=orthogonalEdgeStyle;html=1;strokeWidth=2;fontSize=14;fontColor=#000000;fillColor=#e3c800;strokeColor=#B09500;entryX=0;entryY=0.5;entryDx=0;entryDy=0;exitX=0.25;exitY=1;exitDx=0;exitDy=0;" parent="354" source="260" target="230" edge="1">
                    <mxGeometry relative="1" as="geometry">
                        <mxPoint x="251" y="209" as="sourcePoint"/>
                        <Array as="points">
                            <mxPoint x="234" y="202"/>
                            <mxPoint x="212" y="202"/>
                            <mxPoint x="212" y="230"/>
                        </Array>
                    </mxGeometry>
                </mxCell>
                <mxCell id="265" style="edgeStyle=orthogonalEdgeStyle;html=1;fontSize=14;fontColor=#000000;exitX=0;exitY=0.5;exitDx=0;exitDy=0;fillColor=#6d8764;strokeColor=#3A5431;strokeWidth=2;entryX=0.922;entryY=-0.062;entryDx=0;entryDy=0;entryPerimeter=0;" parent="354" source="35" target="260" edge="1">
                    <mxGeometry relative="1" as="geometry">
                        <Array as="points">
                            <mxPoint x="386" y="120"/>
                            <mxPoint x="386" y="109"/>
                            <mxPoint x="345" y="109"/>
                        </Array>
                    </mxGeometry>
                </mxCell>
                <mxCell id="269" style="edgeStyle=orthogonalEdgeStyle;html=1;entryX=0.75;entryY=1;entryDx=0;entryDy=0;fontSize=14;fontColor=#000000;fillColor=#e51400;strokeColor=#B20000;strokeWidth=2;exitX=0.25;exitY=0;exitDx=0;exitDy=0;" parent="354" source="229" target="262" edge="1">
                    <mxGeometry relative="1" as="geometry"/>
                </mxCell>
                <mxCell id="272" style="edgeStyle=orthogonalEdgeStyle;html=1;strokeWidth=2;fontSize=14;fontColor=#000000;fillColor=#e3c800;strokeColor=#B09500;entryX=0.75;entryY=1;entryDx=0;entryDy=0;exitX=0;exitY=0.5;exitDx=0;exitDy=0;" parent="354" source="231" target="260" edge="1">
                    <mxGeometry relative="1" as="geometry">
                        <mxPoint x="344" y="228" as="targetPoint"/>
                        <Array as="points">
                            <mxPoint x="395" y="172"/>
                            <mxPoint x="395" y="184"/>
                            <mxPoint x="316" y="184"/>
                        </Array>
                    </mxGeometry>
                </mxCell>
                <mxCell id="331" style="edgeStyle=orthogonalEdgeStyle;html=1;exitX=1;exitY=0.5;exitDx=0;exitDy=0;entryX=0;entryY=0.5;entryDx=0;entryDy=0;strokeWidth=3;fontSize=14;fontColor=#000000;fillColor=#e3c800;strokeColor=#B09500;" parent="354" source="276" target="264" edge="1">
                    <mxGeometry relative="1" as="geometry">
                        <Array as="points">
                            <mxPoint x="391" y="402"/>
                            <mxPoint x="391" y="198"/>
                        </Array>
                    </mxGeometry>
                </mxCell>
                <mxCell id="276" value="UPDATE GAME_SPACE" style="rounded=1;arcSize=9;fillColor=#f0a30a;align=left;spacingLeft=5;strokeColor=#BD7000;html=1;strokeWidth=2;fontColor=#000000;fontSize=12" parent="354" vertex="1">
                    <mxGeometry x="183" y="388" width="139" height="27" as="geometry"/>
                </mxCell>
                <mxCell id="288" style="edgeStyle=orthogonalEdgeStyle;html=1;strokeWidth=2;fontSize=14;fontColor=#000000;entryX=0.25;entryY=0;entryDx=0;entryDy=0;fillColor=#e3c800;strokeColor=#B09500;exitX=1;exitY=0.5;exitDx=0;exitDy=0;" parent="354" source="285" target="276" edge="1">
                    <mxGeometry relative="1" as="geometry">
                        <mxPoint x="775" y="173" as="targetPoint"/>
                        <mxPoint x="805" y="294" as="sourcePoint"/>
                    </mxGeometry>
                </mxCell>
                <mxCell id="283" value="Game player_type drop down" style="rounded=1;arcSize=9;fillColor=#F7F8F9;align=left;spacingLeft=5;strokeColor=#DEE1E6;html=1;strokeWidth=2;fontColor=#596780;fontSize=12" parent="354" vertex="1">
                    <mxGeometry x="192" y="317" width="158" height="21" as="geometry"/>
                </mxCell>
                <mxCell id="284" style="edgeStyle=orthogonalEdgeStyle;html=1;fontColor=#000000;exitX=0;exitY=0.5;exitDx=0;exitDy=0;entryX=0.75;entryY=0;entryDx=0;entryDy=0;strokeWidth=2;fillColor=#e3c800;strokeColor=#B09500;" parent="354" source="283" target="323" edge="1">
                    <mxGeometry relative="1" as="geometry">
                        <mxPoint x="558.5" y="286" as="targetPoint"/>
                        <Array as="points">
                            <mxPoint x="160" y="328"/>
                            <mxPoint x="160" y="259"/>
                            <mxPoint x="102" y="259"/>
                        </Array>
                    </mxGeometry>
                </mxCell>
                <mxCell id="285" value="Your Home's Street Name" style="rounded=1;arcSize=9;fillColor=#F7F8F9;align=left;spacingLeft=5;strokeColor=#DEE1E6;html=1;strokeWidth=2;fontColor=#596780;fontSize=12" parent="354" vertex="1">
                    <mxGeometry x="30" y="348" width="158" height="21" as="geometry"/>
                </mxCell>
                <mxCell id="286" value="Players Name" style="rounded=1;arcSize=9;fillColor=#F7F8F9;align=left;spacingLeft=5;strokeColor=#DEE1E6;html=1;strokeWidth=2;fontColor=#596780;fontSize=12" parent="354" vertex="1">
                    <mxGeometry x="196" y="263" width="158" height="21" as="geometry"/>
                </mxCell>
                <mxCell id="282" style="edgeStyle=orthogonalEdgeStyle;html=1;entryX=1;entryY=0.5;entryDx=0;entryDy=0;fontColor=#000000;exitX=0.75;exitY=1;exitDx=0;exitDy=0;strokeWidth=2;fillColor=#e3c800;strokeColor=#B09500;" parent="354" source="286" target="283" edge="1">
                    <mxGeometry relative="1" as="geometry">
                        <Array as="points">
                            <mxPoint x="314" y="300"/>
                            <mxPoint x="376" y="300"/>
                            <mxPoint x="376" y="328"/>
                        </Array>
                    </mxGeometry>
                </mxCell>
                <mxCell id="296" value="CREATE PLAYER" style="rounded=1;arcSize=9;fillColor=#f0a30a;align=left;spacingLeft=5;strokeColor=#BD7000;html=1;strokeWidth=2;fontColor=#000000;fontSize=12" parent="354" vertex="1">
                    <mxGeometry x="596" y="133" width="110" height="27" as="geometry"/>
                </mxCell>
                <mxCell id="274" style="edgeStyle=orthogonalEdgeStyle;html=1;strokeWidth=2;fontSize=14;fontColor=#000000;fillColor=#e3c800;strokeColor=#B09500;entryX=1;entryY=0.5;entryDx=0;entryDy=0;exitX=1;exitY=0.5;exitDx=0;exitDy=0;" parent="354" source="230" target="286" edge="1">
                    <mxGeometry relative="1" as="geometry">
                        <mxPoint x="601" y="261" as="targetPoint"/>
                    </mxGeometry>
                </mxCell>
                <mxCell id="333" style="edgeStyle=orthogonalEdgeStyle;html=1;strokeWidth=3;fontSize=14;fontColor=#000000;fillColor=#0050ef;strokeColor=#001DBC;" parent="354" source="301" target="33" edge="1">
                    <mxGeometry relative="1" as="geometry"/>
                </mxCell>
                <mxCell id="301" value="CREATE GAME" style="rounded=1;arcSize=9;fillColor=#f0a30a;align=center;spacingLeft=5;strokeColor=#BD7000;strokeWidth=2;fontColor=#000000;fontSize=12;labelBackgroundColor=#FF9933;" parent="354" vertex="1">
                    <mxGeometry x="235" width="115" height="27" as="geometry"/>
                </mxCell>
                <mxCell id="304" style="edgeStyle=orthogonalEdgeStyle;html=1;exitX=0.25;exitY=0;exitDx=0;exitDy=0;entryX=0.25;entryY=1;entryDx=0;entryDy=0;strokeWidth=2;fontSize=14;fontColor=#000000;" parent="354" source="230" target="230" edge="1">
                    <mxGeometry relative="1" as="geometry"/>
                </mxCell>
                <mxCell id="310" style="edgeStyle=orthogonalEdgeStyle;html=1;exitX=1;exitY=0.5;exitDx=0;exitDy=0;entryX=1;entryY=0.5;entryDx=0;entryDy=0;strokeWidth=2;fontSize=14;fontColor=#000000;fillColor=#fa6800;strokeColor=#C73500;" parent="354" source="484" target="305" edge="1">
                    <mxGeometry relative="1" as="geometry">
                        <Array as="points">
                            <mxPoint x="608" y="250"/>
                            <mxPoint x="608" y="288"/>
                        </Array>
                    </mxGeometry>
                </mxCell>
                <mxCell id="316" style="edgeStyle=orthogonalEdgeStyle;html=1;entryX=0;entryY=0.5;entryDx=0;entryDy=0;strokeWidth=3;fontSize=14;fontColor=#000000;exitX=0;exitY=0.5;exitDx=0;exitDy=0;fillColor=#a0522d;strokeColor=#6D1F00;" parent="354" source="6" target="314" edge="1">
                    <mxGeometry relative="1" as="geometry">
                        <Array as="points">
                            <mxPoint y="70"/>
                            <mxPoint y="434"/>
                            <mxPoint x="375" y="434"/>
                        </Array>
                    </mxGeometry>
                </mxCell>
                <mxCell id="317" value="DISPLAY Game_space" style="rounded=1;arcSize=9;fillColor=#f0a30a;align=left;spacingLeft=5;strokeColor=#BD7000;html=1;strokeWidth=2;fontColor=#000000;fontSize=12" parent="354" vertex="1">
                    <mxGeometry x="642" y="13" width="138" height="27" as="geometry"/>
                </mxCell>
                <mxCell id="319" value="DISPLAY PLAYER" style="rounded=1;arcSize=9;fillColor=#f0a30a;align=left;spacingLeft=5;strokeColor=#BD7000;html=1;strokeWidth=2;fontColor=#000000;fontSize=12" parent="354" vertex="1">
                    <mxGeometry x="637" y="193" width="110" height="27" as="geometry"/>
                </mxCell>
                <mxCell id="339" value="" style="edgeStyle=orthogonalEdgeStyle;html=1;strokeWidth=2;fontSize=14;fontColor=#000000;entryX=0;entryY=0.75;entryDx=0;entryDy=0;fillColor=#b1ddf0;strokeColor=#10739e;exitX=0.5;exitY=1;exitDx=0;exitDy=0;" parent="354" source="296" target="319" edge="1">
                    <mxGeometry relative="1" as="geometry">
                        <mxPoint x="583" y="165" as="sourcePoint"/>
                        <Array as="points">
                            <mxPoint x="607" y="168"/>
                            <mxPoint x="607" y="213"/>
                        </Array>
                    </mxGeometry>
                </mxCell>
                <mxCell id="345" style="edgeStyle=orthogonalEdgeStyle;html=1;exitX=1;exitY=0.5;exitDx=0;exitDy=0;strokeWidth=2;fontSize=14;fontColor=#000000;fillColor=#b1ddf0;strokeColor=#10739e;entryX=1;entryY=0.5;entryDx=0;entryDy=0;" parent="354" source="322" target="258" edge="1">
                    <mxGeometry relative="1" as="geometry">
                        <mxPoint x="840.5555013020835" y="154.56244913736964" as="targetPoint"/>
                        <Array as="points">
                            <mxPoint x="945" y="208"/>
                            <mxPoint x="945" y="142"/>
                        </Array>
                    </mxGeometry>
                </mxCell>
                <mxCell id="489" style="edgeStyle=orthogonalEdgeStyle;html=1;exitX=0.25;exitY=0;exitDx=0;exitDy=0;entryX=1;entryY=0;entryDx=0;entryDy=0;strokeColor=#FF99FF;strokeWidth=2;fontSize=14;fontColor=#000000;" parent="354" source="322" target="33" edge="1">
                    <mxGeometry relative="1" as="geometry">
                        <Array as="points">
                            <mxPoint x="822" y="191"/>
                            <mxPoint x="822" y="179"/>
                            <mxPoint x="752" y="179"/>
                            <mxPoint x="752" y="115"/>
                            <mxPoint x="789" y="115"/>
                            <mxPoint x="789" y="48"/>
                            <mxPoint x="553" y="48"/>
                        </Array>
                    </mxGeometry>
                </mxCell>
                <mxCell id="322" value="UPDATE GAME" style="rounded=1;arcSize=9;fillColor=#f0a30a;align=left;spacingLeft=5;strokeColor=#BD7000;html=1;strokeWidth=2;fontColor=#000000;fontSize=12" parent="354" vertex="1">
                    <mxGeometry x="799" y="191" width="110" height="27" as="geometry"/>
                </mxCell>
                <mxCell id="327" style="edgeStyle=orthogonalEdgeStyle;html=1;exitX=0.25;exitY=1;exitDx=0;exitDy=0;entryX=0.25;entryY=0;entryDx=0;entryDy=0;strokeWidth=3;fontSize=14;fontColor=#000000;fillColor=#e3c800;strokeColor=#B09500;" parent="354" source="323" target="285" edge="1">
                    <mxGeometry relative="1" as="geometry"/>
                </mxCell>
                <mxCell id="323" value="UPDATE PLAYER" style="rounded=1;arcSize=9;fillColor=#f0a30a;align=left;spacingLeft=5;strokeColor=#BD7000;html=1;strokeWidth=2;fontColor=#000000;fontSize=12" parent="354" vertex="1">
                    <mxGeometry x="19" y="284" width="110" height="27" as="geometry"/>
                </mxCell>
                <mxCell id="324" value="" style="group" parent="354" vertex="1" connectable="0">
                    <mxGeometry x="432" y="275" width="205" height="150" as="geometry"/>
                </mxCell>
                <mxCell id="305" value="DELETE GAME_SPACES" style="rounded=1;arcSize=9;fillColor=#f0a30a;align=center;spacingLeft=5;strokeColor=#BD7000;strokeWidth=2;fontColor=#000000;fontSize=12;labelBackgroundColor=#FF9933;" parent="324" vertex="1">
                    <mxGeometry width="148" height="27" as="geometry"/>
                </mxCell>
                <mxCell id="306" value="DELETE PLAYERS" style="rounded=1;arcSize=9;fillColor=#f0a30a;align=center;spacingLeft=5;strokeColor=#BD7000;strokeWidth=2;fontColor=#000000;fontSize=12;labelBackgroundColor=#FF9933;" parent="324" vertex="1">
                    <mxGeometry x="49" y="41" width="147" height="27" as="geometry"/>
                </mxCell>
                <mxCell id="307" value="DELETE GAME" style="rounded=1;arcSize=9;fillColor=#f0a30a;align=center;spacingLeft=5;strokeColor=#BD7000;strokeWidth=2;fontColor=#000000;fontSize=12;labelBackgroundColor=#FF9933;" parent="324" vertex="1">
                    <mxGeometry x="58" y="82" width="147" height="27" as="geometry"/>
                </mxCell>
                <mxCell id="314" value="EXIT GAME" style="rounded=1;arcSize=9;fillColor=#f0a30a;align=center;spacingLeft=5;strokeColor=#BD7000;strokeWidth=2;fontColor=#000000;fontSize=12;labelBackgroundColor=#FF9933;" parent="324" vertex="1">
                    <mxGeometry x="19" y="123" width="147" height="27" as="geometry"/>
                </mxCell>
                <mxCell id="311" style="edgeStyle=orthogonalEdgeStyle;html=1;entryX=0;entryY=0.75;entryDx=0;entryDy=0;strokeWidth=2;fontSize=14;fontColor=#000000;exitX=0;exitY=0.5;exitDx=0;exitDy=0;fillColor=#fa6800;strokeColor=#C73500;" parent="324" source="305" target="306" edge="1">
                    <mxGeometry relative="1" as="geometry">
                        <mxPoint x="1278" y="259" as="sourcePoint"/>
                    </mxGeometry>
                </mxCell>
                <mxCell id="313" style="edgeStyle=orthogonalEdgeStyle;html=1;strokeWidth=2;fontSize=14;fontColor=#000000;entryX=1;entryY=0.5;entryDx=0;entryDy=0;exitX=1;exitY=0.5;exitDx=0;exitDy=0;fillColor=#fa6800;strokeColor=#C73500;" parent="324" source="306" target="307" edge="1">
                    <mxGeometry relative="1" as="geometry">
                        <mxPoint x="1492.4443359375" y="265.5" as="targetPoint"/>
                        <Array as="points">
                            <mxPoint x="230" y="55"/>
                            <mxPoint x="230" y="95"/>
                        </Array>
                    </mxGeometry>
                </mxCell>
                <mxCell id="315" style="edgeStyle=orthogonalEdgeStyle;html=1;entryX=0.125;entryY=-0.053;entryDx=0;entryDy=0;strokeWidth=2;fontSize=14;fontColor=#000000;exitX=0;exitY=0.5;exitDx=0;exitDy=0;entryPerimeter=0;fillColor=#fa6800;strokeColor=#C73500;" parent="324" source="307" target="314" edge="1">
                    <mxGeometry relative="1" as="geometry"/>
                </mxCell>
                <mxCell id="341" style="edgeStyle=orthogonalEdgeStyle;html=1;exitX=1;exitY=0.5;exitDx=0;exitDy=0;entryX=0;entryY=0.5;entryDx=0;entryDy=0;strokeWidth=2;fontSize=14;fontColor=#000000;fillColor=#b1ddf0;strokeColor=#10739e;" parent="354" source="319" target="322" edge="1">
                    <mxGeometry relative="1" as="geometry"/>
                </mxCell>
                <mxCell id="332" style="edgeStyle=orthogonalEdgeStyle;html=1;entryX=0;entryY=0.5;entryDx=0;entryDy=0;strokeWidth=3;fontSize=14;fontColor=#000000;fillColor=#0050ef;strokeColor=#001DBC;" parent="354" source="4" target="301" edge="1">
                    <mxGeometry relative="1" as="geometry"/>
                </mxCell>
                <mxCell id="349" value="" style="edgeStyle=orthogonalEdgeStyle;html=1;strokeWidth=2;fontSize=14;fontColor=#000000;entryX=1;entryY=0.5;entryDx=0;entryDy=0;exitX=0.5;exitY=0;exitDx=0;exitDy=0;fillColor=#b1ddf0;strokeColor=#10739e;" parent="354" source="299" target="317" edge="1">
                    <mxGeometry relative="1" as="geometry"/>
                </mxCell>
                <mxCell id="299" value="CREATE Game_space" style="rounded=1;arcSize=9;fillColor=#f0a30a;align=left;spacingLeft=5;strokeColor=#BD7000;html=1;strokeWidth=2;fontColor=#000000;fontSize=12" parent="354" vertex="1">
                    <mxGeometry x="799" y="67" width="138" height="27" as="geometry"/>
                </mxCell>
                <mxCell id="351" style="edgeStyle=orthogonalEdgeStyle;html=1;exitX=0.5;exitY=0;exitDx=0;exitDy=0;entryX=0.5;entryY=1;entryDx=0;entryDy=0;strokeWidth=2;fontSize=14;fontColor=#000000;fillColor=#b1ddf0;strokeColor=#10739e;" parent="354" source="258" target="299" edge="1">
                    <mxGeometry relative="1" as="geometry"/>
                </mxCell>
                <mxCell id="488" style="edgeStyle=orthogonalEdgeStyle;html=1;exitX=1;exitY=0.5;exitDx=0;exitDy=0;entryX=0.25;entryY=1;entryDx=0;entryDy=0;strokeColor=#FF99FF;strokeWidth=2;fontSize=14;fontColor=#000000;" parent="354" source="303" target="322" edge="1">
                    <mxGeometry relative="1" as="geometry"/>
                </mxCell>
            </root>
        </mxGraphModel>
    </diagram>
</mxfile>